<?xml version="1.0" encoding="utf-8"?>
<!-- Generator: Adobe Illustrator 23.0.3, SVG Export Plug-In . SVG Version: 6.00 Build 0)  -->
<svg version="1.1" id="Layer_1" xmlns="http://www.w3.org/2000/svg" xmlns:xlink="http://www.w3.org/1999/xlink" x="0px" y="0px"
	 viewBox="0 0 188.5 64.5" style="enable-background:new 0 0 188.5 64.5;" xml:space="preserve">
<style type="text/css">
	.st0{fill:#159BEC;}
	.st1{fill:#54EAF1;}
	.st2{fill:#095DE1;}
	.st3{fill:#FFFFFF;}
	.st4{fill:#041066;}
</style>
<g>
	<g>
		<path class="st0" d="M2,4v27.8c0,2.8,1.9,5.2,4.5,5.8l5.5,1.4v21.6c0,1.4,1.3,2.3,2.6,1.9l23.3-7.8c2.5-0.8,4.1-3.1,4.1-5.7V16.1
			c0-2.8-1.9-5.2-4.5-5.8l-33-8.2C3.2,1.7,2,2.7,2,4z"/>
		<g>
			<path class="st1" d="M37.5,10.3v44.5l0.4-0.1c2.5-0.8,4.1-3.1,4.1-5.7V16.1C42,13.4,40.1,11,37.5,10.3z"/>
		</g>
		<path class="st2" d="M37.5,54.8l-22.9,7.6c-1.3,0.4-2.6-0.5-2.6-1.9V38.9l25.1,6.3C42,46.4,42.2,53.2,37.5,54.8z"/>
		<g>
			<g>
				<path class="st3" d="M39,30.2l-25.7-6.4c-0.6-0.2-1.2,0.3-1.2,1v2.1c0,0.5,0.3,0.9,0.8,1L39,34.3c1.8,0.4,3,2,3,3.9v-4.1
					C42,32.3,40.7,30.7,39,30.2z"/>
			</g>
			<path class="st3" d="M31.2,19.5l-18-4.5c-0.6-0.2-1.2,0.3-1.2,1v2.1c0,0.5,0.3,0.9,0.8,1l18,4.5c0.6,0.2,1.2-0.3,1.2-1v-2.1
				C32,20,31.7,19.6,31.2,19.5z"/>
		</g>
	</g>
	<g>
		<path class="st4" d="M58.8,32.7c-1.8-0.5-3.2-1.3-4.2-2.3s-1.5-2.5-1.5-4.5c0-2.4,0.9-4.3,2.6-5.7c1.7-1.4,4.1-2.1,7.1-2.1
			c1.2,0,2.5,0.1,3.7,0.3c1.2,0.2,2.4,0.6,3.7,1c-0.1,0.8-0.2,1.7-0.5,2.6c-0.3,0.9-0.6,1.7-0.9,2.4c-0.8-0.3-1.6-0.6-2.5-0.8
			c-0.9-0.2-1.9-0.4-2.9-0.4c-1.1,0-1.9,0.2-2.5,0.5c-0.6,0.3-0.9,0.9-0.9,1.6c0,0.7,0.2,1.2,0.6,1.5c0.4,0.3,1,0.6,1.8,0.8l2.7,0.8
			c0.9,0.3,1.7,0.6,2.4,0.9c0.7,0.4,1.3,0.8,1.8,1.4c0.5,0.5,0.9,1.2,1.2,2c0.3,0.8,0.4,1.8,0.4,2.9c0,1.2-0.2,2.3-0.7,3.3
			s-1.2,1.9-2.2,2.7c-0.9,0.8-2.1,1.3-3.4,1.8c-1.3,0.4-2.9,0.6-4.6,0.6c-0.8,0-1.5,0-2.1-0.1c-0.6,0-1.3-0.1-1.8-0.2
			s-1.2-0.2-1.8-0.4c-0.6-0.2-1.2-0.4-1.9-0.6c0.1-0.9,0.2-1.7,0.5-2.6c0.2-0.9,0.6-1.7,0.9-2.6c1.1,0.4,2.1,0.7,3,0.9
			c0.9,0.2,1.9,0.3,3,0.3c0.4,0,0.9,0,1.5-0.1c0.5-0.1,1-0.2,1.5-0.4c0.4-0.2,0.8-0.5,1.1-0.8c0.3-0.3,0.5-0.8,0.5-1.3
			c0-0.8-0.2-1.3-0.7-1.7c-0.5-0.3-1.1-0.6-1.9-0.9L58.8,32.7z"/>
		<path class="st4" d="M81.5,33.2c0.1,1.9,0.8,3.3,2,4.2c1.2,0.9,2.8,1.3,4.8,1.3c1.1,0,2.2-0.1,3.3-0.3c1.1-0.2,2.2-0.5,3.2-0.9
			c0.4,0.6,0.7,1.4,0.9,2.3c0.3,0.9,0.4,1.9,0.4,2.9c-2.5,1-5.3,1.4-8.4,1.4c-2.3,0-4.3-0.3-5.9-1s-3-1.5-4-2.7S76,38,75.5,36.4
			c-0.5-1.6-0.7-3.3-0.7-5.1c0-1.8,0.3-3.5,0.8-5.1c0.5-1.6,1.3-3,2.3-4.2c1-1.2,2.3-2.1,3.7-2.8c1.5-0.7,3.2-1,5.2-1
			c1.7,0,3.3,0.3,4.6,0.9c1.3,0.6,2.5,1.4,3.4,2.5c0.9,1.1,1.7,2.3,2.1,3.8s0.7,3,0.7,4.7c0,0.6,0,1.2-0.1,1.8
			c0,0.6-0.1,1.1-0.2,1.4H81.5z M91.2,28.5c-0.1-1.5-0.5-2.8-1.3-3.7c-0.8-0.9-1.9-1.4-3.3-1.4c-1.6,0-2.8,0.4-3.6,1.3
			c-0.8,0.9-1.3,2.2-1.5,3.8H91.2z"/>
		<path class="st4" d="M102.9,18.7c0.4-0.1,0.9-0.2,1.3-0.2c0.4,0,0.9,0,1.5,0c0.9,0,1.8,0.1,2.7,0.3c0.1,0.2,0.2,0.4,0.3,0.7
			c0.1,0.3,0.2,0.6,0.2,1c0.1,0.4,0.1,0.7,0.2,1c0,0.3,0.1,0.6,0.1,0.8c0.3-0.5,0.6-1,1.1-1.5c0.4-0.5,0.9-0.9,1.5-1.3
			c0.6-0.4,1.3-0.7,2-0.9c0.7-0.2,1.6-0.4,2.4-0.4c1.4,0,2.7,0.3,3.9,0.8c1.2,0.5,2.2,1.3,3.1,2.3c0.9,1,1.6,2.3,2.1,3.9
			c0.5,1.6,0.7,3.4,0.7,5.6c0,2.1-0.3,3.9-0.9,5.6c-0.6,1.6-1.5,3-2.6,4.2c-1.2,1.2-2.6,2-4.2,2.7c-1.7,0.6-3.6,0.9-5.7,0.9
			c-0.5,0-1.1,0-1.6-0.1c-0.5,0-1-0.1-1.3-0.2v11c-0.6,0.1-1.2,0.2-1.8,0.2c-0.6,0-1.1,0-1.7,0c-0.5,0-1.1,0-1.7,0
			c-0.6,0-1.1-0.1-1.8-0.2V18.7z M109.7,38.3c0.9,0.3,1.9,0.4,3,0.4c2,0,3.5-0.6,4.6-1.9c1.1-1.3,1.6-3.2,1.6-5.8
			c0-1-0.1-1.9-0.2-2.8c-0.2-0.8-0.4-1.6-0.8-2.2c-0.4-0.6-0.9-1.1-1.5-1.4c-0.6-0.4-1.3-0.5-2.2-0.5c-0.8,0-1.5,0.2-2,0.5
			c-0.6,0.3-1,0.7-1.4,1.2c-0.4,0.5-0.6,1.1-0.8,1.8c-0.2,0.7-0.2,1.5-0.2,2.3V38.3z"/>
		<path class="st4" d="M143.8,27.2c0-0.8-0.1-1.4-0.4-1.9c-0.3-0.5-0.6-0.9-1.1-1.1c-0.4-0.3-1-0.5-1.7-0.6
			c-0.7-0.1-1.4-0.1-2.2-0.1c-1.7,0-3.6,0.3-5.5,1c-0.4-0.8-0.8-1.6-1-2.4c-0.2-0.7-0.3-1.6-0.3-2.6c1.4-0.5,2.8-0.8,4.2-1.1
			c1.4-0.2,2.7-0.3,3.9-0.3c3.3,0,5.9,0.8,7.8,2.4c1.9,1.6,2.8,4.2,2.8,7.7v14.4c-1.1,0.4-2.5,0.7-4.1,1c-1.6,0.3-3.4,0.5-5.4,0.5
			c-1.6,0-3.1-0.1-4.5-0.4c-1.4-0.3-2.5-0.8-3.5-1.4c-1-0.7-1.7-1.5-2.3-2.6c-0.5-1.1-0.8-2.4-0.8-3.9c0-1.5,0.3-2.8,1-3.9
			s1.5-1.9,2.5-2.5s2.2-1.1,3.5-1.3c1.3-0.3,2.6-0.4,3.8-0.4c0.9,0,2,0,3.1,0.1V27.2z M143.8,32.2c-0.4-0.1-0.8-0.1-1.2-0.2
			c-0.4,0-0.8-0.1-1.2-0.1c-1.6,0-2.8,0.3-3.7,0.8c-0.9,0.6-1.4,1.5-1.4,2.7c0,0.8,0.2,1.5,0.5,1.9c0.4,0.4,0.8,0.8,1.3,1
			c0.5,0.2,1,0.3,1.6,0.4c0.6,0,1,0.1,1.5,0.1c0.5,0,1,0,1.4-0.1c0.5-0.1,0.9-0.2,1.2-0.2V32.2z"/>
		<path class="st4" d="M161.2,32.7c-1.8-0.5-3.2-1.3-4.2-2.3s-1.5-2.5-1.5-4.5c0-2.4,0.9-4.3,2.6-5.7c1.7-1.4,4.1-2.1,7.1-2.1
			c1.2,0,2.5,0.1,3.7,0.3s2.4,0.6,3.7,1c-0.1,0.8-0.2,1.7-0.5,2.6c-0.3,0.9-0.6,1.7-0.9,2.4c-0.8-0.3-1.6-0.6-2.5-0.8
			c-0.9-0.2-1.9-0.4-2.9-0.4c-1.1,0-1.9,0.2-2.5,0.5c-0.6,0.3-0.9,0.9-0.9,1.6c0,0.7,0.2,1.2,0.6,1.5s1,0.6,1.8,0.8l2.7,0.8
			c0.9,0.3,1.7,0.6,2.4,0.9s1.3,0.8,1.8,1.4s0.9,1.2,1.2,2s0.4,1.8,0.4,2.9c0,1.2-0.2,2.3-0.7,3.3c-0.5,1-1.2,1.9-2.2,2.7
			c-0.9,0.8-2.1,1.3-3.4,1.8c-1.3,0.4-2.9,0.6-4.6,0.6c-0.8,0-1.5,0-2.1-0.1c-0.6,0-1.3-0.1-1.8-0.2c-0.6-0.1-1.2-0.2-1.8-0.4
			c-0.6-0.2-1.2-0.4-1.9-0.6c0.1-0.9,0.2-1.7,0.5-2.6s0.6-1.7,0.9-2.6c1.1,0.4,2.1,0.7,3,0.9c0.9,0.2,1.9,0.3,3,0.3
			c0.4,0,0.9,0,1.5-0.1c0.5-0.1,1-0.2,1.5-0.4c0.4-0.2,0.8-0.5,1.1-0.8c0.3-0.3,0.5-0.8,0.5-1.3c0-0.8-0.2-1.3-0.7-1.7
			s-1.1-0.6-1.9-0.9L161.2,32.7z"/>
		<path class="st4" d="M179.9,23.9h-3.2c-0.1-0.4-0.2-0.9-0.2-1.3c0-0.5-0.1-0.9-0.1-1.3c0-0.9,0.1-1.7,0.3-2.5h9.9v24.8
			c-1.2,0.2-2.3,0.3-3.4,0.3c-1.1,0-2.2-0.1-3.3-0.3V23.9z M178.9,14.6c-0.2-1.1-0.3-2.2-0.3-3.2c0-1,0.1-2.1,0.3-3.2
			c0.5-0.1,1.1-0.2,1.8-0.2c0.6,0,1.2-0.1,1.7-0.1c0.5,0,1.1,0,1.8,0.1c0.6,0,1.2,0.1,1.8,0.2c0.1,0.5,0.2,1.1,0.2,1.6
			c0,0.5,0,1.1,0,1.6c0,0.5,0,1,0,1.6c0,0.5-0.1,1.1-0.2,1.6c-0.5,0.1-1.1,0.2-1.8,0.2c-0.6,0-1.2,0-1.8,0c-0.5,0-1.1,0-1.7,0
			C180,14.7,179.4,14.6,178.9,14.6z"/>
	</g>
</g>
</svg>
