<?xml version="1.0" encoding="utf-8"?>
<!-- Generator: Adobe Illustrator 23.0.3, SVG Export Plug-In . SVG Version: 6.00 Build 0)  -->
<svg version="1.1" id="Layer_1" xmlns="http://www.w3.org/2000/svg" xmlns:xlink="http://www.w3.org/1999/xlink" x="0px" y="0px"
	 viewBox="0 0 316 289" style="enable-background:new 0 0 316 289;" xml:space="preserve">
<style type="text/css">
	.st0{fill:#FCE4EC;}
	.st1{fill:#C1C9EE;}
	.st2{fill:#159BEC;}
	.st3{fill:#FFFFFF;}
	.st4{fill:#095DE1;}
	.st5{fill:#A7803D;}
	.st6{fill:#FFAB91;}
	.st7{fill:#8E6A2E;}
	.st8{fill:#041066;}
	.st9{fill-rule:evenodd;clip-rule:evenodd;fill:#FFFFFF;}
	.st10{fill:#EFF3F8;}
	.st11{fill:#FF8A65;}
	.st12{fill:#54EAF1;}
</style>
<g>
	<g>
		<g>
			<path class="st0" d="M139.6,120.7c0,0-17.4,37.2-54.9,35.8c-50.9-2-88,76.5-14.1,119.5h159.7c0,0,68.6-54.5,26.3-133
				C226.8,87.7,150.7,99.3,139.6,120.7z"/>
		</g>
		<g>
			<g>
				<g>
					<g>
						<rect x="52.2" y="91.6" class="st1" width="196.4" height="1.6"/>
					</g>
					<g>
						<path class="st1" d="M246.1,202.7H54.8c-1.9,0-3.4-1.5-3.4-3.4V76c0-1.9,1.5-3.4,3.4-3.4h191.3c1.9,0,3.4,1.5,3.4,3.4v123.3
							C249.5,201.2,248,202.7,246.1,202.7z M54.8,74.2c-1,0-1.8,0.8-1.8,1.8v123.3c0,1,0.8,1.8,1.8,1.8h191.3c1,0,1.8-0.8,1.8-1.8
							V76c0-1-0.8-1.8-1.8-1.8H54.8z"/>
					</g>
				</g>
			</g>
			<g>
				<g>
					<g>
						<g>
							<g>
								<path class="st2" d="M51.2,166.9L51.2,166.9c-12.1,0-21.8-9.8-21.8-21.8v0c0-12.1,9.8-21.8,21.8-21.8l0,0
									c12.1,0,21.8,9.8,21.8,21.8v0C73.1,157.1,63.3,166.9,51.2,166.9z"/>
							</g>
						</g>
					</g>
				</g>
				<g>
					<g>
						<path class="st3" d="M51.2,158.8c-7.6,0-13.7-6.2-13.7-13.7s6.2-13.7,13.7-13.7s13.7,6.2,13.7,13.7S58.8,158.8,51.2,158.8z
							 M51.2,133.4c-6.5,0-11.7,5.3-11.7,11.7s5.3,11.7,11.7,11.7s11.7-5.3,11.7-11.7S57.7,133.4,51.2,133.4z"/>
					</g>
					<g>
						<path class="st3" d="M50,149.8c-0.2,0-0.4-0.1-0.6-0.2l-4-2.8c-0.5-0.3-0.6-0.9-0.2-1.4c0.3-0.5,0.9-0.6,1.4-0.2l3.2,2.3
							l5.3-6.7c0.3-0.4,1-0.5,1.4-0.2c0.4,0.3,0.5,1,0.2,1.4l-5.9,7.4C50.6,149.7,50.3,149.8,50,149.8z"/>
					</g>
				</g>
			</g>
			<g>
				<circle class="st4" cx="247.6" cy="73.4" r="44.1"/>
				<g>
					<g>
						<path class="st3" d="M262.3,84.8h-29.4c-0.9,0-1.6-0.7-1.6-1.6v-3.3c0-9,7.3-16.3,16.3-16.3c9,0,16.3,7.3,16.3,16.3v3.3
							C263.9,84.1,263.2,84.8,262.3,84.8z M234.5,81.5h26.1v-1.6c0-7.2-5.9-13.1-13.1-13.1s-13.1,5.9-13.1,13.1V81.5z"/>
					</g>
					<g>
						<path class="st3" d="M267.1,94.6H228c-0.9,0-1.6-0.7-1.6-1.6v-9.8c0-0.9,0.7-1.6,1.6-1.6h39.2c0.9,0,1.6,0.7,1.6,1.6V93
							C268.8,93.9,268.1,94.6,267.1,94.6z M229.6,91.3h35.9v-6.5h-35.9V91.3z"/>
					</g>
					<g>
						<path class="st3" d="M247.6,66.9c-0.9,0-1.6-0.7-1.6-1.6V62c0,0,0,0,0-0.1v-8.1c0-0.5,0.2-0.9,0.6-1.2
							c0.3-0.3,0.8-0.5,1.3-0.4l7.7,1c1.4,0.2,2.6,1.3,2.8,2.7c0.2,1.4-0.5,2.8-1.8,3.5l-7.3,3.7v2.3
							C249.2,66.1,248.5,66.9,247.6,66.9z M249.2,55.6v3.7l5.9-2.9L249.2,55.6z"/>
					</g>
					<g>
						<path class="st3" d="M234.5,94.6c-0.9,0-1.6-0.7-1.6-1.6v-9.8c0-0.9,0.7-1.6,1.6-1.6c0.9,0,1.6,0.7,1.6,1.6V93
							C236.1,93.9,235.4,94.6,234.5,94.6z"/>
					</g>
					<g>
						<path class="st3" d="M241,94.6c-0.9,0-1.6-0.7-1.6-1.6v-9.8c0-0.9,0.7-1.6,1.6-1.6c0.9,0,1.6,0.7,1.6,1.6V93
							C242.7,93.9,241.9,94.6,241,94.6z"/>
					</g>
					<g>
						<path class="st3" d="M247.6,94.6c-0.9,0-1.6-0.7-1.6-1.6v-9.8c0-0.9,0.7-1.6,1.6-1.6c0.9,0,1.6,0.7,1.6,1.6V93
							C249.2,93.9,248.5,94.6,247.6,94.6z"/>
					</g>
					<g>
						<path class="st3" d="M254.1,94.6c-0.9,0-1.6-0.7-1.6-1.6v-9.8c0-0.9,0.7-1.6,1.6-1.6s1.6,0.7,1.6,1.6V93
							C255.7,93.9,255,94.6,254.1,94.6z"/>
					</g>
					<g>
						<path class="st3" d="M260.6,94.6c-0.9,0-1.6-0.7-1.6-1.6v-9.8c0-0.9,0.7-1.6,1.6-1.6c0.9,0,1.6,0.7,1.6,1.6V93
							C262.3,93.9,261.5,94.6,260.6,94.6z"/>
					</g>
				</g>
			</g>
		</g>
	</g>
	<g>
		<g>
			<g>
				<g>
					<g>
						<path class="st5" d="M150.4,164.3c0,0-31.1,0-54.1,22.5V250c0,0,109.7,1.7,109.7,0c0-1.7,0-65.9,0-65.9
							S183.6,164.3,150.4,164.3z"/>
					</g>
					<g>
						<g>
							<polygon class="st6" points="61.4,251.8 80.8,220.1 109.6,223.9 105.3,261.3 							"/>
							<path class="st5" d="M96.3,186.8c0,0-18.7,28.7-36.6,58.8c0,0,8,12.1,41.2,14.7L96.3,186.8z"/>
							<path class="st7" d="M98.5,221.5l2.4,38.9c-5.7-0.5-10.6-1.2-14.9-2.1C89.1,249.5,94.5,233.5,98.5,221.5z"/>
							<path class="st7" d="M225.6,256.8c-5.1,1.2-11.5,1.9-19.5,1.6v-33.2L225.6,256.8z"/>
							<path class="st7" d="M101,260.4c-5.7-0.5-10.6-1.2-14.9-2.1c3-8.8,8.5-24.9,12.5-36.8L101,260.4z"/>
							<path class="st6" d="M104.1,246.5H72.8c-8.2,0-14.9,6.7-14.9,14.9l0,0c0,8.2,6.7,14.9,14.9,14.9h36.8L104.1,246.5z"/>
							<g>
								<path class="st8" d="M96.3,247.3H72.8c-0.5,0-0.8-0.4-0.8-0.8c0-0.5,0.4-0.8,0.8-0.8h23.5c0.5,0,0.8,0.4,0.8,0.8
									C97.1,246.9,96.8,247.3,96.3,247.3z"/>
							</g>
						</g>
					</g>
					<g>
						<g>
							<polygon class="st6" points="244.3,251.4 219.9,213.8 196.4,223.9 200.7,261.3 							"/>
							<path class="st5" d="M206,184.1c0,0,20.4,31.5,38.3,61.6c0,0-7.5,13.9-38.3,12.8V184.1z"/>
							<path class="st7" d="M225.6,256.8c-5.1,1.2-11.5,1.9-19.5,1.6v-33.2L225.6,256.8z"/>
							<path class="st6" d="M202,246.5h31.3c8.2,0,14.9,6.7,14.9,14.9l0,0c0,8.2-6.7,14.9-14.9,14.9h-36.8L202,246.5z"/>
							<g>
								<path class="st8" d="M233.2,247.3h-29.5c-0.5,0-0.8-0.4-0.8-0.8c0-0.5,0.4-0.8,0.8-0.8h29.5c0.5,0,0.8,0.4,0.8,0.8
									C234,246.9,233.7,247.3,233.2,247.3z"/>
							</g>
						</g>
					</g>
					<g>
						<path class="st9" d="M185,203.9h-2.9l2.8-1.4V200h0.2v2.5l2.8,1.4H185L185,203.9z M185,204h1.9l0,0.5l0.9,0.4
							c-0.2,0.2-0.5,0.3-1,0.3c-0.6,0-0.8,0.3-1.1,0.8c-0.3,0.4-0.5,0.5-0.7,0.4c-0.2,0-0.4,0-0.7-0.4c-0.3-0.5-0.5-0.8-1.1-0.8
							c-0.5,0-0.8-0.1-1-0.3l0.9-0.4l0-0.5H185L185,204z M185.2,204.2v0.3h0.2v-0.3H185.2L185.2,204.2z M186,204.2v0.3h0.2v-0.3H186
							L186,204.2z M188.1,204.9c-0.5,0.4-0.8,0.4-1.3,0.5c-0.4,0-0.7,0.3-1,0.7c-0.2,0.3-0.4,0.6-0.8,0.6c-0.4,0-0.6-0.3-0.8-0.6
							c-0.2-0.4-0.5-0.6-1-0.7c-0.5,0-0.8,0-1.3-0.5c0,0.2,0.1,0.6,0.3,1c0.4,0.8,1.1,1.3,1.9,1.2c0.4-0.1,0.7-0.2,0.9-0.2
							c0.3-0.1,0.5,0.1,0.9,0.2c0.8,0.1,1.5-0.4,1.9-1.2C188,205.5,188.1,205.1,188.1,204.9L188.1,204.9z M188.8,205.5
							c0,0,0.7-0.1,1.3-1c0.4-0.7,0.4-1.4,0.1-2.1c-0.2-0.7-0.6-1.2-1.1-1.4c0.5,0.8,1,1.9,0,3C189.1,204.5,189.2,205,188.8,205.5
							L188.8,205.5z M187.9,206c0.2-0.1,0.4-0.2,0.5-0.3c0.4-0.3,0.6-0.8,0.6-1.3c0-0.2-0.1-0.7-0.3-0.8c0.3,0.9-0.4,1.1-0.5,1.7
							C188.1,205.6,188,205.8,187.9,206L187.9,206z M188.8,205.7c0.8-0.3,1.3-0.8,1.7-1.9c0.2,1.2-0.7,2.5-2,2.6
							C188.7,206.2,188.8,206,188.8,205.7L188.8,205.7z M187.3,206.8c0.8,0,1.2-0.4,1.4-1c-0.2,0.2-0.4,0.2-0.7,0.3
							c-0.1,0-0.2,0.1-0.3,0.3C187.6,206.5,187.5,206.6,187.3,206.8L187.3,206.8z M187.9,207c0.2-0.2,0.4-0.3,0.5-0.5
							c0.7,0,1.2-0.2,1.7-0.8C189.9,206.7,188.9,207.3,187.9,207L187.9,207z M185.3,207.1c0.4,0.1,0.7,0.2,1.1,0.1
							c0.5,0.3,1.2,0.5,1.9,0.5C187.3,208.3,185.7,208,185.3,207.1L185.3,207.1z M187.2,207.4c0.3-0.1,0.5-0.2,0.6-0.3
							c0.5,0.1,0.8,0.1,1.3-0.1C188.7,207.6,187.7,207.6,187.2,207.4L187.2,207.4z M186.5,207.2c0.3,0,0.5-0.2,0.7-0.3
							c0.2,0.1,0.5,0.1,0.7,0C187.6,207.2,187,207.5,186.5,207.2L186.5,207.2z M184.7,204.2h-0.2v0.3h0.2V204.2L184.7,204.2z
							 M183.9,204.2h-0.2v0.3h0.2V204.2L183.9,204.2z M181.2,205.5c0,0-0.7-0.1-1.3-1c-0.4-0.7-0.4-1.4-0.1-2.1
							c0.2-0.7,0.6-1.2,1.1-1.4c-0.5,0.8-1,1.9,0,3C180.8,204.5,180.8,205,181.2,205.5L181.2,205.5z M182.1,206
							c-0.1-0.2-0.2-0.4-0.3-0.7c-0.1-0.6-0.8-0.8-0.5-1.7c-0.2,0.2-0.3,0.6-0.3,0.8c0,0.5,0.2,1,0.6,1.3
							C181.7,205.8,181.9,205.9,182.1,206L182.1,206z M181.1,205.7c-0.8-0.3-1.3-0.8-1.7-1.9c-0.2,1.2,0.7,2.5,2,2.6
							C181.3,206.2,181.2,206,181.1,205.7L181.1,205.7z M182.7,206.8c-0.2-0.1-0.3-0.3-0.4-0.4c-0.1-0.2-0.2-0.2-0.3-0.3
							c-0.2-0.1-0.4-0.2-0.7-0.3C181.4,206.3,181.9,206.8,182.7,206.8L182.7,206.8z M182,207c-1,0.2-2-0.3-2.2-1.3
							c0.5,0.6,1,0.8,1.7,0.8C181.7,206.7,181.9,206.9,182,207L182,207z M184.7,207.1c-0.5,0.9-2.1,1.2-2.9,0.7
							c0.7-0.1,1.3-0.2,1.9-0.5C184,207.3,184.3,207.1,184.7,207.1L184.7,207.1z M182.8,207.4c-0.5,0.2-1.5,0.2-2-0.4
							c0.5,0.2,0.8,0.2,1.3,0.1C182.3,207.3,182.5,207.3,182.8,207.4L182.8,207.4z M183.5,207.2c-0.6,0.3-1.2,0.1-1.5-0.3
							c0.2,0,0.5,0.1,0.7,0C183,207,183.2,207.1,183.5,207.2z"/>
						<g>
							<path class="st9" d="M185,200.1c0.3-0.3,0-0.5,0-0.8C184.7,199.5,184.7,199.9,185,200.1z"/>
							<path class="st9" d="M185.2,202.3c0-0.4,0.4-0.3,0.6-0.5C185.8,202.2,185.5,202.4,185.2,202.3z"/>
							<path class="st9" d="M185.2,201.7c0-0.4,0.4-0.3,0.6-0.5C185.8,201.6,185.5,201.8,185.2,201.7z"/>
							<path class="st9" d="M185.2,201.1c0-0.4,0.4-0.3,0.6-0.5C185.8,200.9,185.4,201.2,185.2,201.1z"/>
							<path class="st9" d="M185.1,200.3c0.2-0.3,0.5-0.1,0.8-0.2C185.8,200.4,185.4,200.5,185.1,200.3z"/>
							<path class="st9" d="M185.6,199.7c-0.4,0-0.3-0.4-0.5-0.6C185.4,199.1,185.7,199.5,185.6,199.7z"/>
							<path class="st9" d="M186,202.4c-0.2,0.3,0.1,0.4,0.2,0.7C186.4,202.9,186.2,202.5,186,202.4z"/>
							<path class="st9" d="M186,202.3c0.1,0.3,0.4,0.3,0.6,0.4C186.6,202.4,186.3,202.2,186,202.3z"/>
							<path class="st9" d="M185.5,202.7c0-0.4,0.3-0.4,0.5-0.6C186.1,202.4,185.8,202.8,185.5,202.7z"/>
							<path class="st9" d="M185.9,201.7c-0.1-0.4,0.3-0.4,0.4-0.7C186.5,201.4,186.2,201.7,185.9,201.7z"/>
							<path class="st9" d="M185.9,201.9c0.1,0.4,0.4,0.3,0.7,0.4C186.5,202,186.2,201.8,185.9,201.9z"/>
							<path class="st9" d="M186.7,202.5c0-0.4,0.3-0.4,0.5-0.6C187.3,202.2,187,202.5,186.7,202.5z"/>
							<path class="st9" d="M186.4,201.7c0.2-0.3,0.5-0.2,0.7-0.3C187,201.8,186.6,201.9,186.4,201.7z"/>
							<path class="st9" d="M186,200.6c0.4-0.1,0.5,0.2,0.7,0.3C186.4,201.1,186,200.9,186,200.6z"/>
							<path class="st9" d="M185.7,199.8c0.2-0.3,0.5-0.1,0.8-0.2C186.3,199.9,185.9,200,185.7,199.8z"/>
							<path class="st9" d="M186,200.2c0.2-0.4,0.5-0.2,0.7-0.3C186.7,200.2,186.3,200.3,186,200.2z"/>
							<path class="st9" d="M186.5,200.3c0.2-0.3,0.5-0.1,0.8-0.1C187.1,200.5,186.7,200.6,186.5,200.3z"/>
							<path class="st9" d="M186.7,200.7c0.3-0.3,0.5,0,0.8-0.1C187.3,200.9,186.9,200.9,186.7,200.7z"/>
							<path class="st9" d="M186.9,201c0.3-0.3,0.5,0,0.8,0C187.5,201.3,187.1,201.3,186.9,201z"/>
							<path class="st9" d="M187.3,201.6c0.3-0.3,0.5,0,0.8,0C187.8,201.8,187.4,201.8,187.3,201.6z"/>
							<path class="st9" d="M187.5,202.1c0.2-0.3,0.5-0.2,0.7-0.3C188.1,202.2,187.7,202.3,187.5,202.1z"/>
							<path class="st9" d="M187.7,202.3c0.1,0.4,0.4,0.3,0.7,0.4C188.3,202.4,188,202.2,187.7,202.3z"/>
							<path class="st9" d="M187.2,202.9c0.4-0.2,0.2-0.4,0.3-0.7C187.2,202.2,187,202.6,187.2,202.9z"/>
							<path class="st9" d="M184.7,202.3c0-0.4-0.4-0.3-0.6-0.5C184.1,202.2,184.5,202.4,184.7,202.3z"/>
							<path class="st9" d="M184.8,201.7c0-0.4-0.4-0.3-0.6-0.5C184.2,201.6,184.5,201.8,184.8,201.7z"/>
							<path class="st9" d="M184.8,201.1c0-0.4-0.4-0.3-0.6-0.5C184.2,200.9,184.5,201.2,184.8,201.1z"/>
							<path class="st9" d="M184.8,200.3c-0.2-0.3-0.5-0.1-0.8-0.2C184.2,200.4,184.6,200.5,184.8,200.3z"/>
							<path class="st9" d="M184.3,199.7c0.4,0,0.3-0.4,0.5-0.6C184.5,199.1,184.3,199.5,184.3,199.7z"/>
							<path class="st9" d="M184,202.4c0.2,0.3-0.1,0.4-0.2,0.7C183.6,202.9,183.7,202.5,184,202.4z"/>
							<path class="st9" d="M183.9,202.3c-0.1,0.3-0.4,0.3-0.6,0.4C183.4,202.4,183.7,202.2,183.9,202.3z"/>
							<path class="st9" d="M184.4,202.7c0-0.4-0.3-0.4-0.5-0.6C183.8,202.4,184.1,202.8,184.4,202.7z"/>
							<path class="st9" d="M184.1,201.7c0.1-0.4-0.3-0.4-0.4-0.7C183.5,201.4,183.8,201.7,184.1,201.7z"/>
							<path class="st9" d="M184.1,201.9c-0.1,0.4-0.4,0.3-0.7,0.4C183.4,202,183.8,201.8,184.1,201.9z"/>
							<path class="st9" d="M183.2,202.5c0-0.4-0.3-0.4-0.5-0.6C182.7,202.2,182.9,202.5,183.2,202.5z"/>
							<path class="st9" d="M183.6,201.7c-0.2-0.3-0.5-0.2-0.7-0.3C182.9,201.8,183.3,201.9,183.6,201.7z"/>
							<path class="st9" d="M184,200.6c-0.4-0.1-0.5,0.2-0.7,0.3C183.6,201.1,183.9,200.9,184,200.6z"/>
							<path class="st9" d="M184.3,199.8c-0.2-0.3-0.5-0.1-0.8-0.2C183.6,199.9,184.1,200,184.3,199.8z"/>
							<path class="st9" d="M183.9,200.2c-0.2-0.4-0.5-0.2-0.7-0.3C183.3,200.2,183.7,200.3,183.9,200.2z"/>
							<path class="st9" d="M183.5,200.3c-0.2-0.3-0.5-0.1-0.8-0.1C182.9,200.5,183.3,200.6,183.5,200.3z"/>
							<path class="st9" d="M183.2,200.7c-0.3-0.3-0.5,0-0.8-0.1C182.6,200.9,183.1,200.9,183.2,200.7z"/>
							<path class="st9" d="M183,201c-0.3-0.3-0.5,0-0.8,0C182.5,201.3,182.9,201.3,183,201z"/>
							<path class="st9" d="M182.7,201.6c-0.3-0.3-0.5,0-0.8,0C182.1,201.8,182.5,201.8,182.7,201.6z"/>
							<path class="st9" d="M182.5,202.1c-0.2-0.3-0.5-0.2-0.7-0.3C181.8,202.2,182.2,202.3,182.5,202.1z"/>
							<path class="st9" d="M182.3,202.3c-0.1,0.4-0.4,0.3-0.7,0.4C181.6,202.4,182,202.2,182.3,202.3z"/>
							<path class="st9" d="M182.8,202.9c-0.4-0.2-0.2-0.4-0.3-0.7C182.8,202.2,182.9,202.6,182.8,202.9z"/>
						</g>
						<path class="st9" d="M182.7,208.9L182.7,208.9l0.2-0.2L182.7,208.9L182.7,208.9z M182.5,209.1l0.4-0.5l0.1,0.1l-0.1,0.7
							l-0.1-0.1l0-0.2l-0.1-0.1l-0.1,0.1L182.5,209.1L182.5,209.1z M183.1,209.3L183.1,209.3c0.1,0,0.1,0,0.1,0c0,0,0,0,0-0.1
							c0,0,0-0.1,0-0.1c0,0,0,0-0.1,0l0,0L183.1,209.3L183.1,209.3z M183.2,209L183.2,209c0.1,0,0.1,0,0.1,0c0,0,0,0,0-0.1
							c0,0,0-0.1,0-0.1c0,0,0,0-0.1,0l0,0L183.2,209L183.2,209z M183,209.3l0.2,0.1c0.1,0,0.1,0,0.1,0c0,0,0.1-0.1,0.1-0.1
							c0,0,0-0.1,0-0.1c0,0,0-0.1-0.1-0.1c0,0,0.1,0,0.1,0c0,0,0,0,0.1-0.1c0-0.1,0-0.1,0-0.1c0,0-0.1-0.1-0.1-0.1l-0.2-0.1
							L183,209.3L183,209.3z M183.6,209.4L183.6,209.4c0.1,0,0.1,0,0.1,0c0,0,0,0,0,0c0,0,0,0,0-0.1c0,0,0-0.1,0-0.1
							c0-0.1,0-0.1,0-0.1c0,0,0-0.1,0-0.1c0,0,0,0,0,0c0,0,0,0,0,0l-0.1,0L183.6,209.4L183.6,209.4z M183.5,209.5l0.1-0.6l0.2,0
							c0,0,0.1,0,0.1,0c0,0,0,0,0,0c0,0,0,0.1,0,0.1c0,0,0,0.1,0,0.2c0,0.1,0,0.2-0.1,0.2c0,0,0,0.1-0.1,0.1c0,0,0,0-0.1,0
							c0,0-0.1,0-0.1,0L183.5,209.5L183.5,209.5z M184,209.6l0.1-0.6l0.1,0l-0.1,0.6L184,209.6L184,209.6z M184.5,209.7l0.1-0.6
							l0.1,0l0.1,0.5l0-0.5l0.1,0l-0.1,0.6l-0.1,0l-0.1-0.5l0,0.5L184.5,209.7L184.5,209.7z M185.1,209.7l0-0.6l0.3,0l0,0.1l-0.2,0
							l0,0.1l0.2,0l0,0.1l-0.2,0l0,0.2l0.2,0l0,0.1L185.1,209.7L185.1,209.7z M185.8,209.6L185.8,209.6
							C185.8,209.6,185.8,209.6,185.8,209.6c-0.1,0-0.1,0-0.1,0c-0.1,0-0.1,0-0.2-0.1c0,0-0.1-0.1-0.1-0.3c0-0.1,0-0.1,0-0.2
							c0,0,0-0.1,0-0.1c0,0,0,0,0.1-0.1c0,0,0.1,0,0.1,0c0.1,0,0.1,0,0.2,0c0,0,0.1,0.1,0.1,0.1l0,0l-0.1,0l0,0c0,0,0-0.1,0-0.1
							c0,0,0,0-0.1,0c0,0-0.1,0-0.1,0.1c0,0,0,0.1,0,0.2c0,0.1,0,0.2,0,0.2c0,0,0,0,0.1,0c0,0,0.1,0,0.1,0c0,0,0-0.1,0-0.1l0,0
							l-0.1,0l0-0.1l0.2,0L185.8,209.6L185.8,209.6L185.8,209.6z M186.1,209.3l0.1,0l-0.1-0.3L186.1,209.3L186.1,209.3z M186,209.6
							l0-0.7l0.2,0l0.3,0.6l-0.1,0l-0.1-0.2l-0.1,0l0,0.2L186,209.6L186,209.6z M186.6,209.1L186.6,209.1c0.1,0,0.1,0,0.1-0.1
							c0,0,0,0,0-0.1c0,0,0-0.1,0-0.1c0,0,0,0-0.1,0l-0.1,0L186.6,209.1L186.6,209.1z M186.6,209.5l0.1,0l-0.1-0.3l0,0
							c0,0,0.1,0,0.1,0c0,0,0,0,0,0.1l0,0l0,0.1c0,0,0,0,0,0.1c0,0,0,0,0,0l0.1,0c0,0,0,0,0,0c0,0,0,0,0-0.1l0-0.1c0,0,0,0,0,0
							c0-0.1-0.1-0.1-0.1-0.1c0,0,0,0,0.1-0.1c0,0,0-0.1,0-0.1c0-0.1,0-0.1-0.1-0.1c0,0-0.1,0-0.1,0l-0.2,0.1L186.6,209.5
							L186.6,209.5z M187.1,209L187.1,209l-0.1-0.3L187.1,209L187.1,209z M187.1,209.4l-0.1-0.7l0.2-0.1l0.4,0.5l-0.1,0l-0.1-0.1
							l-0.1,0.1l0,0.2L187.1,209.4z"/>
					</g>
				</g>
				<g>
					<path class="st2" d="M203,276.2H99.4c-1.7,0-3-1.4-3-3v-66.8c0-1.7,1.4-3,3-3H203c1.7,0,3,1.4,3,3v66.8
						C206,274.8,204.6,276.2,203,276.2z"/>
					<path class="st3" d="M157.9,239.8c0,3.7-3,6.7-6.7,6.7c-3.7,0-6.7-3-6.7-6.7c0-3.7,3-6.7,6.7-6.7
						C154.9,233,157.9,236,157.9,239.8z"/>
				</g>
			</g>
			<path class="st7" d="M150.4,164.3c0,0-6.6,0-15.9,2.2l7.2,19.5l9.5-7.4l11.2,6.2l6-18.6C162.8,165,156.8,164.3,150.4,164.3z"/>
			<g>
				<g>
					<path class="st6" d="M132.9,120.1c0.1,5.2-4,9.6-9.2,9.7c-5.2,0.1-9.6-4-9.7-9.2c-0.1-5.2,4-9.6,9.2-9.7
						C128.4,110.7,132.8,114.8,132.9,120.1z"/>
					<g>
						<path class="st8" d="M125.4,124.5c-0.3,0-0.6-0.2-0.7-0.4c-3.1-5.7-6.2-4.4-6.3-4.4c-0.4,0.2-0.9,0-1.1-0.4
							c-0.2-0.4,0-0.9,0.4-1.1c0.2-0.1,4.5-2.1,8.4,5.1c0.2,0.4,0.1,0.9-0.3,1.1C125.7,124.5,125.6,124.5,125.4,124.5z"/>
					</g>
				</g>
				<g>
					<circle class="st6" cx="177" cy="120.3" r="9.5"/>
					<g>
						<path class="st8" d="M175.1,124.6c-0.1,0-0.3,0-0.4-0.1c-0.4-0.2-0.6-0.7-0.4-1.1c3.7-7.3,8.1-5.4,8.3-5.3
							c0.4,0.2,0.6,0.7,0.4,1.1c-0.2,0.4-0.7,0.6-1.1,0.4c-0.1-0.1-3.2-1.2-6.2,4.5C175.7,124.4,175.4,124.6,175.1,124.6z"/>
					</g>
				</g>
				<g>
					<path class="st6" d="M162.4,140.6c0,0-5.3,3.8-10.2,4.7c-4.9,0.9-9.6-1.9-9.7-1.9c-0.1,0-5.7-3.3-5.7-3.3l-0.9,28.3l0,0
						c8.3,6.8,19.2,6.4,27.5-0.3l0,0L162.4,140.6z"/>
				</g>
				<path class="st8" d="M135.1,140c0,0,4,15.6,15.9,15.4c10-0.2,12.7-15.4,12.7-15.4H135.1z"/>
				<path class="st6" d="M175.8,103.8c0.1,10.7-1.4,20-2.9,26.5c-1.5,6.4-5.7,10.9-11.6,14.6l-1.1,0.7c-6.3,3.9-14.4,4-20.8,0.3l0,0
					c-6.5-3.7-11-8.6-12.4-15.4c-2.6-12.5-2.9-26.4-2.9-26.4s-3.6-29,24.3-28.6S175.8,103.8,175.8,103.8z"/>
				<path class="st8" d="M125.1,117.9c0,0,6.1-33.1,2.1-37.6C127.1,80.3,113.1,93,125.1,117.9z"/>
				<path class="st8" d="M174.8,116.5c0,0-9.9-28.6-3.4-33.3C171.4,83.2,185,90,174.8,116.5z"/>
				<path class="st8" d="M164.3,78.5c0,0,14.6-4,16.2,11.3c1.1,10.9-5.9,27-5.9,27l-0.4-24.3L164.3,78.5z"/>
				<path class="st8" d="M162.6,78.7c0,0-0.3,19.4,14.3,19.6C176.9,98.3,179.6,81,162.6,78.7z"/>
				<path class="st8" d="M166.9,87.2c0,0-10.3-1-21.3,4s-29,7.5-31.6-5.4c-2.7-13.5,12-25.2,39.3-16.3c21.6,7,15.2,15,15.2,15
					L166.9,87.2z"/>
			</g>
			<polygon class="st7" points="136.2,161.7 150.4,171.6 163.2,161.7 166.1,165.8 162.6,176.6 140.6,176.8 134.4,166.3 			"/>
			<polygon class="st5" points="163.2,161.7 150.4,171.6 160.8,182.2 166.1,165.8 			"/>
			<polygon class="st5" points="150.4,171.6 143.8,182.2 134.4,166.3 136.2,161.7 			"/>
		</g>
		<g>
			<path class="st8" d="M269.7,277H35.3c-0.5,0-0.8-0.4-0.8-0.8s0.4-0.8,0.8-0.8h234.4c0.5,0,0.8,0.4,0.8,0.8S270.1,277,269.7,277z"
				/>
		</g>
	</g>
</g>
</svg>
