<?xml version="1.0" encoding="utf-8"?>
<!-- Generator: Adobe Illustrator 23.0.3, SVG Export Plug-In . SVG Version: 6.00 Build 0)  -->
<svg version="1.1" id="Layer_1" xmlns="http://www.w3.org/2000/svg" xmlns:xlink="http://www.w3.org/1999/xlink" x="0px" y="0px"
	 viewBox="0 0 316 289" style="enable-background:new 0 0 316 289;" xml:space="preserve">
<style type="text/css">
	.st0{fill:#FCE4EC;}
	.st1{fill:#C1C9EE;}
	.st2{fill:#159BEC;}
	.st3{fill:#FFFFFF;}
	.st4{fill:#095DE1;}
	.st5{fill:#A7803D;}
	.st6{fill:#FFAB91;}
	.st7{fill:#8E6A2E;}
	.st8{fill:#041066;}
	.st9{fill-rule:evenodd;clip-rule:evenodd;fill:#FFFFFF;}
	.st10{fill:#EFF3F8;}
	.st11{fill:#FF8A65;}
	.st12{fill:#54EAF1;}
</style>
<g>
	<g>
		<g>
			<path class="st0" d="M179.9,129.1c0,0,13.6,19.9,58.7,19.8c57.6-0.2,90.1,83.7,14.4,127.1H89.4c0,0-70.6-57.6-32.6-124.9
				C84.8,101.6,161,100,179.9,129.1z"/>
		</g>
		<g>
			<g>
				<g>
					<g>
						<rect x="59.7" y="87.5" class="st1" width="210.1" height="1.6"/>
					</g>
					<g>
						<path class="st1" d="M267.2,194h-205c-1.9,0-3.4-1.5-3.4-3.4V71.8c0-1.9,1.5-3.4,3.4-3.4h205c1.9,0,3.4,1.5,3.4,3.4v118.8
							C270.6,192.5,269.1,194,267.2,194z M62.2,70.1c-1,0-1.8,0.8-1.8,1.8v118.8c0,1,0.8,1.8,1.8,1.8h205c1,0,1.8-0.8,1.8-1.8V71.8
							c0-1-0.8-1.8-1.8-1.8H62.2z"/>
					</g>
				</g>
			</g>
		</g>
		<g>
			<circle class="st4" cx="60.6" cy="71.6" r="44.1"/>
			<g>
				<g>
					<path class="st3" d="M79.1,87.1c-0.3,0-0.7-0.1-1-0.3L61.8,74.1c-0.7-0.6-0.8-1.6-0.3-2.3c0.6-0.7,1.6-0.8,2.3-0.3l16.3,12.6
						c0.7,0.6,0.8,1.6,0.3,2.3C80,86.9,79.6,87.1,79.1,87.1z"/>
				</g>
				<g>
					<g>
						<path class="st3" d="M76.9,87.9H44.2c-2.7,0-4.9-2.2-4.9-4.9V60.2c0-2.7,2.2-4.9,4.9-4.9h32.6c2.7,0,4.9,2.2,4.9,4.9V83
							C81.8,85.7,79.6,87.9,76.9,87.9z M44.2,58.5c-0.9,0-1.6,0.7-1.6,1.6V83c0,0.9,0.7,1.6,1.6,1.6h32.6c0.9,0,1.6-0.7,1.6-1.6
							V60.2c0-0.9-0.7-1.6-1.6-1.6H44.2z"/>
					</g>
					<g>
						<path class="st3" d="M60.6,75.3c-1.2,0-2.4-0.4-3.3-1.3L40.9,59c-0.7-0.6-0.7-1.6-0.1-2.3c0.6-0.7,1.6-0.7,2.3-0.1l16.4,15
							c0.6,0.6,1.6,0.6,2.2,0l16.4-15c0.7-0.6,1.7-0.6,2.3,0.1c0.6,0.7,0.6,1.7-0.1,2.3L63.9,74C62.9,74.9,61.8,75.3,60.6,75.3z"/>
					</g>
					<g>
						<path class="st3" d="M42.1,87.1c-0.5,0-1-0.2-1.3-0.6c-0.6-0.7-0.4-1.7,0.3-2.3l16.3-12.6c0.7-0.6,1.7-0.4,2.3,0.3
							c0.6,0.7,0.4,1.7-0.3,2.3L43.1,86.7C42.8,87,42.4,87.1,42.1,87.1z"/>
					</g>
				</g>
			</g>
		</g>
	</g>
	<g>
		<g>
			<g>
				<g>
					<path class="st6" d="M156.2,211.3l-11.3,41.9c-2.7,10,3.6,20.2,13.7,22.2l0,0c9.7,2,19.1-4.3,21.1-13.9l9.2-44.7L156.2,211.3z"
						/>
					<path class="st5" d="M193.1,171.7c-0.6,0-20.4-5-31,8.8c-10.6,13.8-12.6,63.1-12.6,63.1s19.3,6.6,28.6,4.7L193.1,171.7z"/>
					<path class="st7" d="M178.1,248.3l15-76.6l-34.3,74.5C163.4,248.1,174.2,248.6,178.1,248.3z"/>
				</g>
				<polygon class="st5" points="188.3,172 168.7,207.7 171.7,269.5 276.4,269.5 260.4,194.9 221.6,168.4 				"/>
				<polygon class="st7" points="232.2,269.5 276.4,269.5 260.4,194.9 246.3,185.3 				"/>
				<g>
					<path class="st6" d="M161.4,251.1c-0.9-1.3-30.8-59.3-30.8-59.3l-18.6,1.5l22.7,82.5h23.9L161.4,251.1z"/>
					<g>
						<g>
							<path class="st4" d="M78.6,190.8l51.4-29.7c1.1-0.6,1.5-2,0.8-3.1l-17.8-30.9c-0.6-1.1-2-1.5-3.1-0.8l-51.4,29.7
								c-1.1,0.6-1.5,2-0.8,3.1L75.4,190C76.1,191,77.5,191.4,78.6,190.8z"/>
						</g>
						<path class="st6" d="M130.5,191.8c0,0-2.5-18.2-14.8-22c-6.4-2-9.4-2.6-12.3-3.4c-2-0.5-4.7,1.4-4.7,3.5l0,0
							c0,0.9,0.4,1.8,1.2,2.4l4.8,3.5l-13.6,7.8l20.9,9.8L130.5,191.8z"/>
						<path class="st2" d="M113.6,128.4c-1-1.8-3.3-2.4-5.1-1.4l-48.9,28.2c-1.8,1-2.4,3.3-1.4,5.1l35.9-1.8L113.6,128.4z"/>
					</g>
				</g>
				<g>
					<path class="st4" d="M207.5,275.8h-64.2v-7.9H201c1.5,0,2.9,0.9,3.6,2.2L207.5,275.8z"/>
					<path class="st2" d="M22.5,207.2L48,275.8h109.7l-27.4-70.2c-1.3-2.6-4-4.2-6.9-4.2H26C23.1,201.5,21.2,204.6,22.5,207.2z"/>
					<path class="st10" d="M90.8,234c2.3,4,1.3,9-2.4,11.1c-3.6,2.1-8.5,0.5-10.8-3.5c-2.3-4-1.3-9,2.4-11.1
						C83.6,228.4,88.4,230,90.8,234z"/>
				</g>
				<g>
					<g>
						<path class="st6" d="M242.1,205.2l22.3,58c2.6,7.5,5.9,12.6,13.9,12.6h0c13.4,0,22.5-13.7,17.3-26l-20.5-52.6L242.1,205.2z"/>
						<path class="st5" d="M214.5,170c0,0,18.7-12.9,38.1-3.9c22.9,10.7,38.6,62.4,38.6,62.4s-11,13.8-39.7,16.6L214.5,170z"/>
					</g>
					<g>
						<polygon class="st6" points="279.5,275.8 192.3,275.8 194.3,263.6 270.1,244.2 						"/>
						<path class="st6" d="M207.3,264.3c0,0-18.9-7.3-28.3-3.8c-6.9,2.6-9.2,3.7-12.5,6.6c-2.8,2.6-3.8,6.5-0.6,8.7l0,0h40.6
							L207.3,264.3z"/>
					</g>
				</g>
			</g>
			<polygon class="st7" points="216.6,170 216.6,190.4 201.1,183.4 189.7,190.8 188.1,171 213.5,165.7 			"/>
			<g>
				<path class="st8" d="M189.3,87.8c0.9,0.7,18.4-5.9,25.6,3.8c9.3,12.4,3.8,34.5-5.7,48.4L189.3,87.8z"/>
				<path class="st8" d="M207,87.6c0,0-2.3-14.4-28.6-10.2c-13.8,2.2-31.3,19.2-28.1,31c1.9,6.9,9.4,9.8,23.1,6.4L207,87.6z"/>
				<path class="st11" d="M173.8,132.5c1.6,4.7-0.8,9.7-5.4,11.3c-4.5,1.5-10.4-0.8-12-5.5c-1.6-4.7,0.8-9.7,5.4-11.3
					C166.3,125.5,172.2,127.9,173.8,132.5z"/>
				<path class="st6" d="M184.1,154l5.4,20.7c1.9,7.3,7.2,10,14.1,8.1l0,0c5.9-1.6,13.9-4.8,12-11.1l-12.3-33.6L184.1,154z"/>
				<path class="st8" d="M187.6,167.7c0,0,15.7-6.7,16.1-20.6c0.2-6.4-20.2,4.8-20.2,4.8L187.6,167.7z"/>
				<path class="st6" d="M191.9,158.4L191.9,158.4c-11.8,3.1-24.1-4-27-13.8l-6.1-20.7c-3.7-12.4,2.8-25.4,14.6-29.4l0,0
					c12.1-4.1,30.9,1.2,35.1,13.7l1.1,17C213.8,139.7,205.8,153.7,191.9,158.4z"/>
				<g>
					<path class="st6" d="M222.2,121.5c1.6,4.6-1.7,9.9-6.2,11.4c-4.5,1.5-9.4-1-10.9-5.7c-1.6-4.6,2.7-10.1,7.1-11.6
						C216.6,114.1,220.6,116.8,222.2,121.5z"/>
					<g>
						<path class="st8" d="M211.6,129.1c0.4-0.1,0.6-0.5,0.5-0.9c0,0-0.3-2.8,1.2-4.7c0.8-1,2.1-1.6,3.7-1.8c0.5,0,0.8-0.5,0.8-0.9
							c0-0.5-0.5-0.8-0.9-0.8c-2.1,0.2-3.8,1-4.9,2.4c-2,2.5-1.6,5.9-1.6,6c0.1,0.5,0.5,0.8,1,0.8
							C211.4,129.1,211.5,129.1,211.6,129.1z"/>
					</g>
				</g>
				<path class="st8" d="M187.7,86.7c-5.5,0.5-10.1,2.2-14.3,3.2c-4.1,1-7.7,3-10.5,5.6c-7.4,2.7-14.6,6.9-12.6,12.8
					c1.1,3.1,3.4,4.5,6.2,4.8c0.1,0.9,0.3,1.8,0.5,2.8l0.8,3.1c-0.3-1.4-0.3-3.1-0.1-4.7c0.1-0.4,0.1-0.8,0.2-1.2
					c7.3-0.3,17.3-6.7,21.3-10.9c4.6-4.8,10.4-3.8,12.8-3.1c0.4,0.1,0.8,0.3,1.2,0.4c5.2,2,6.7,7.2,6.3,10
					c-0.4,2.5-2.2,7.7,1.4,12.7l4,5l7.7-8.6l1.8-9.7C215,95,201.5,85.4,187.7,86.7z"/>
			</g>
			<polygon class="st7" points="200.4,177.7 201.1,183.4 206.4,183.4 216.6,170 213.5,165.7 			"/>
			<polygon class="st7" points="200.4,177.7 201.1,183.4 195.8,184.4 188.1,171 			"/>
			<polygon class="st5" points="213.5,165.7 200.4,177.7 214.1,187.7 216.6,170 			"/>
			<polygon class="st5" points="188.1,171 200.4,177.7 190.9,188.5 			"/>
		</g>
		<g>
			<path class="st8" d="M298.7,277H34.1c-0.5,0-0.8-0.4-0.8-0.8s0.4-0.8,0.8-0.8h264.6c0.5,0,0.8,0.4,0.8,0.8S299.1,277,298.7,277z"
				/>
		</g>
	</g>
	<g>
		<path class="st9" d="M229.6,213.8h-2.9l2.8-1.4V210h0.2v2.5l2.8,1.4H229.6L229.6,213.8z M229.6,214h1.9l0,0.5l0.9,0.4
			c-0.2,0.2-0.5,0.3-1,0.3c-0.6,0-0.8,0.3-1.1,0.8c-0.3,0.4-0.5,0.5-0.7,0.4c-0.2,0-0.4,0-0.7-0.4c-0.3-0.5-0.5-0.8-1.1-0.8
			c-0.5,0-0.8-0.1-1-0.3l0.9-0.4l0-0.5H229.6L229.6,214z M229.9,214.2v0.3h0.2v-0.3H229.9L229.9,214.2z M230.6,214.2v0.3h0.2v-0.3
			H230.6L230.6,214.2z M232.7,214.8c-0.5,0.4-0.8,0.4-1.3,0.5c-0.4,0-0.7,0.3-1,0.7c-0.2,0.3-0.4,0.6-0.8,0.6
			c-0.4,0-0.6-0.3-0.8-0.6c-0.2-0.4-0.5-0.6-1-0.7c-0.5,0-0.8,0-1.3-0.5c0,0.2,0.1,0.6,0.3,1c0.4,0.8,1.1,1.3,1.9,1.2
			c0.4-0.1,0.7-0.2,0.9-0.2c0.3-0.1,0.5,0.1,0.9,0.2c0.8,0.1,1.5-0.4,1.9-1.2C232.6,215.4,232.7,215,232.7,214.8L232.7,214.8z
			 M233.4,215.5c0,0,0.7-0.1,1.3-1c0.4-0.7,0.4-1.4,0.1-2.1c-0.2-0.7-0.6-1.2-1.1-1.4c0.5,0.8,1,1.9,0,3
			C233.8,214.4,233.8,215,233.4,215.5L233.4,215.5z M232.5,216c0.2-0.1,0.4-0.2,0.5-0.3c0.4-0.3,0.6-0.8,0.6-1.3
			c0-0.2-0.1-0.7-0.3-0.8c0.3,0.9-0.4,1.1-0.5,1.7C232.7,215.6,232.6,215.7,232.5,216L232.5,216z M233.4,215.7
			c0.8-0.3,1.3-0.8,1.7-1.9c0.2,1.2-0.7,2.5-2,2.6C233.3,216.2,233.4,216,233.4,215.7L233.4,215.7z M231.9,216.7
			c0.8,0,1.2-0.4,1.4-1c-0.2,0.2-0.4,0.2-0.7,0.3c-0.1,0-0.2,0.1-0.3,0.3C232.2,216.4,232.1,216.6,231.9,216.7L231.9,216.7z
			 M232.5,217c0.2-0.2,0.4-0.3,0.5-0.5c0.7,0,1.2-0.2,1.7-0.8C234.6,216.7,233.5,217.2,232.5,217L232.5,217z M229.9,217
			c0.4,0.1,0.7,0.2,1.1,0.1c0.5,0.3,1.2,0.5,1.9,0.5C231.9,218.3,230.4,217.9,229.9,217L229.9,217z M231.8,217.4
			c0.3-0.1,0.5-0.2,0.6-0.3c0.5,0.1,0.8,0.1,1.3-0.1C233.3,217.6,232.3,217.6,231.8,217.4L231.8,217.4z M231.1,217.1
			c0.3,0,0.5-0.2,0.7-0.3c0.2,0.1,0.5,0.1,0.7,0C232.3,217.2,231.7,217.5,231.1,217.1L231.1,217.1z M229.3,214.2h-0.2v0.3h0.2V214.2
			L229.3,214.2z M228.6,214.2h-0.2v0.3h0.2V214.2L228.6,214.2z M225.8,215.5c0,0-0.7-0.1-1.3-1c-0.4-0.7-0.4-1.4-0.1-2.1
			c0.2-0.7,0.6-1.2,1.1-1.4c-0.5,0.8-1,1.9,0,3C225.4,214.4,225.4,215,225.8,215.5L225.8,215.5z M226.7,216
			c-0.1-0.2-0.2-0.4-0.3-0.7c-0.1-0.6-0.8-0.8-0.5-1.7c-0.2,0.2-0.3,0.6-0.3,0.8c0,0.5,0.2,1,0.6,1.3
			C226.3,215.8,226.5,215.9,226.7,216L226.7,216z M225.8,215.7c-0.8-0.3-1.3-0.8-1.7-1.9c-0.2,1.2,0.7,2.5,2,2.6
			C225.9,216.2,225.8,216,225.8,215.7L225.8,215.7z M227.3,216.7c-0.2-0.1-0.3-0.3-0.4-0.4c-0.1-0.2-0.2-0.2-0.3-0.3
			c-0.2-0.1-0.4-0.2-0.7-0.3C226.1,216.3,226.5,216.8,227.3,216.7L227.3,216.7z M226.7,217c-1,0.2-2-0.3-2.2-1.3
			c0.5,0.6,1,0.8,1.7,0.8C226.3,216.7,226.5,216.9,226.7,217L226.7,217z M229.3,217c-0.5,0.9-2.1,1.2-2.9,0.7
			c0.7-0.1,1.3-0.2,1.9-0.5C228.6,217.2,229,217.1,229.3,217L229.3,217z M227.4,217.4c-0.5,0.2-1.5,0.2-2-0.4
			c0.5,0.2,0.8,0.2,1.3,0.1C226.9,217.2,227.1,217.3,227.4,217.4L227.4,217.4z M228.1,217.1c-0.6,0.3-1.2,0.1-1.5-0.3
			c0.2,0,0.5,0.1,0.7,0C227.6,217,227.8,217.1,228.1,217.1z"/>
		<g>
			<path class="st9" d="M229.6,210.1c0.3-0.3,0-0.5,0-0.8C229.3,209.5,229.4,209.9,229.6,210.1z"/>
			<path class="st9" d="M229.8,212.3c0-0.4,0.4-0.3,0.6-0.5C230.5,212.1,230.1,212.4,229.8,212.3z"/>
			<path class="st9" d="M229.8,211.7c0-0.4,0.4-0.3,0.6-0.5C230.4,211.5,230.1,211.8,229.8,211.7z"/>
			<path class="st9" d="M229.8,211.1c0-0.4,0.4-0.3,0.6-0.5C230.4,210.9,230.1,211.2,229.8,211.1z"/>
			<path class="st9" d="M229.8,210.3c0.2-0.3,0.5-0.1,0.8-0.2C230.4,210.4,230,210.5,229.8,210.3z"/>
			<path class="st9" d="M230.3,209.7c-0.4,0-0.3-0.4-0.5-0.6C230.1,209.1,230.3,209.4,230.3,209.7z"/>
			<path class="st9" d="M230.6,212.4c-0.2,0.3,0.1,0.4,0.2,0.7C231,212.8,230.9,212.5,230.6,212.4z"/>
			<path class="st9" d="M230.6,212.3c0.1,0.3,0.4,0.3,0.6,0.4C231.2,212.4,230.9,212.2,230.6,212.3z"/>
			<path class="st9" d="M230.2,212.7c0-0.4,0.3-0.4,0.5-0.6C230.7,212.4,230.5,212.7,230.2,212.7z"/>
			<path class="st9" d="M230.5,211.7c-0.1-0.4,0.3-0.4,0.4-0.7C231.1,211.3,230.8,211.7,230.5,211.7z"/>
			<path class="st9" d="M230.5,211.9c0.1,0.4,0.4,0.3,0.7,0.4C231.2,212,230.8,211.7,230.5,211.9z"/>
			<path class="st9" d="M231.3,212.5c0-0.4,0.3-0.4,0.5-0.6C231.9,212.2,231.6,212.5,231.3,212.5z"/>
			<path class="st9" d="M231,211.7c0.2-0.3,0.5-0.2,0.7-0.3C231.7,211.7,231.3,211.8,231,211.7z"/>
			<path class="st9" d="M230.6,210.6c0.4-0.1,0.5,0.2,0.7,0.3C231,211.1,230.6,210.9,230.6,210.6z"/>
			<path class="st9" d="M230.3,209.8c0.2-0.3,0.5-0.1,0.8-0.2C230.9,209.9,230.5,210,230.3,209.8z"/>
			<path class="st9" d="M230.7,210.1c0.2-0.4,0.5-0.2,0.7-0.3C231.3,210.2,230.9,210.3,230.7,210.1z"/>
			<path class="st9" d="M231.1,210.3c0.2-0.3,0.5-0.1,0.8-0.1C231.7,210.5,231.3,210.5,231.1,210.3z"/>
			<path class="st9" d="M231.3,210.6c0.3-0.3,0.5,0,0.8-0.1C231.9,210.9,231.5,210.9,231.3,210.6z"/>
			<path class="st9" d="M231.5,211c0.3-0.3,0.5,0,0.8,0C232.1,211.3,231.7,211.2,231.5,211z"/>
			<path class="st9" d="M231.9,211.5c0.3-0.3,0.5,0,0.8,0C232.5,211.8,232,211.8,231.9,211.5z"/>
			<path class="st9" d="M232.1,212.1c0.2-0.3,0.5-0.2,0.7-0.3C232.8,212.1,232.4,212.3,232.1,212.1z"/>
			<path class="st9" d="M232.3,212.3c0.1,0.4,0.4,0.3,0.7,0.4C232.9,212.4,232.6,212.2,232.3,212.3z"/>
			<path class="st9" d="M231.8,212.8c0.4-0.2,0.2-0.4,0.3-0.7C231.8,212.2,231.7,212.6,231.8,212.8z"/>
			<path class="st9" d="M229.4,212.3c0-0.4-0.4-0.3-0.6-0.5C228.8,212.1,229.1,212.4,229.4,212.3z"/>
			<path class="st9" d="M229.4,211.7c0-0.4-0.4-0.3-0.6-0.5C228.8,211.5,229.1,211.8,229.4,211.7z"/>
			<path class="st9" d="M229.4,211.1c0-0.4-0.4-0.3-0.6-0.5C228.8,210.9,229.1,211.2,229.4,211.1z"/>
			<path class="st9" d="M229.4,210.3c-0.2-0.3-0.5-0.1-0.8-0.2C228.8,210.4,229.2,210.5,229.4,210.3z"/>
			<path class="st9" d="M228.9,209.7c0.4,0,0.3-0.4,0.5-0.6C229.1,209.1,228.9,209.4,228.9,209.7z"/>
			<path class="st9" d="M228.6,212.4c0.2,0.3-0.1,0.4-0.2,0.7C228.2,212.8,228.3,212.5,228.6,212.4z"/>
			<path class="st9" d="M228.6,212.3c-0.1,0.3-0.4,0.3-0.6,0.4C228,212.4,228.3,212.2,228.6,212.3z"/>
			<path class="st9" d="M229,212.7c0-0.4-0.3-0.4-0.5-0.6C228.5,212.4,228.7,212.7,229,212.7z"/>
			<path class="st9" d="M228.7,211.7c0.1-0.4-0.3-0.4-0.4-0.7C228.1,211.3,228.4,211.7,228.7,211.7z"/>
			<path class="st9" d="M228.7,211.9c-0.1,0.4-0.4,0.3-0.7,0.4C228.1,212,228.4,211.7,228.7,211.9z"/>
			<path class="st9" d="M227.9,212.5c0-0.4-0.3-0.4-0.5-0.6C227.3,212.2,227.6,212.5,227.9,212.5z"/>
			<path class="st9" d="M228.2,211.7c-0.2-0.3-0.5-0.2-0.7-0.3C227.5,211.7,227.9,211.8,228.2,211.7z"/>
			<path class="st9" d="M228.6,210.6c-0.4-0.1-0.5,0.2-0.7,0.3C228.2,211.1,228.6,210.9,228.6,210.6z"/>
			<path class="st9" d="M228.9,209.8c-0.2-0.3-0.5-0.1-0.8-0.2C228.3,209.9,228.7,210,228.9,209.8z"/>
			<path class="st9" d="M228.5,210.1c-0.2-0.4-0.5-0.2-0.7-0.3C227.9,210.2,228.3,210.3,228.5,210.1z"/>
			<path class="st9" d="M228.1,210.3c-0.2-0.3-0.5-0.1-0.8-0.1C227.5,210.5,227.9,210.5,228.1,210.3z"/>
			<path class="st9" d="M227.9,210.6c-0.3-0.3-0.5,0-0.8-0.1C227.3,210.9,227.7,210.9,227.9,210.6z"/>
			<path class="st9" d="M227.7,211c-0.3-0.3-0.5,0-0.8,0C227.1,211.3,227.5,211.2,227.7,211z"/>
			<path class="st9" d="M227.3,211.5c-0.3-0.3-0.5,0-0.8,0C226.7,211.8,227.2,211.8,227.3,211.5z"/>
			<path class="st9" d="M227.1,212.1c-0.2-0.3-0.5-0.2-0.7-0.3C226.4,212.1,226.8,212.3,227.1,212.1z"/>
			<path class="st9" d="M226.9,212.3c-0.1,0.4-0.4,0.3-0.7,0.4C226.3,212.4,226.6,212.2,226.9,212.3z"/>
			<path class="st9" d="M227.4,212.8c-0.4-0.2-0.2-0.4-0.3-0.7C227.4,212.2,227.5,212.6,227.4,212.8z"/>
		</g>
		<path class="st9" d="M227.4,218.9L227.4,218.9l0.2-0.2L227.4,218.9L227.4,218.9z M227.1,219l0.4-0.5l0.1,0.1l-0.1,0.7l-0.1-0.1
			l0-0.2l-0.1-0.1l-0.1,0.1L227.1,219L227.1,219z M227.7,219.2L227.7,219.2c0.1,0,0.1,0,0.1,0c0,0,0,0,0-0.1c0,0,0-0.1,0-0.1
			c0,0,0,0-0.1,0l0,0L227.7,219.2L227.7,219.2z M227.8,218.9L227.8,218.9c0.1,0,0.1,0,0.1,0c0,0,0,0,0-0.1c0,0,0-0.1,0-0.1
			c0,0,0,0-0.1,0l0,0L227.8,218.9L227.8,218.9z M227.6,219.3l0.2,0.1c0.1,0,0.1,0,0.1,0c0,0,0.1-0.1,0.1-0.1c0,0,0-0.1,0-0.1
			c0,0,0-0.1-0.1-0.1c0,0,0.1,0,0.1,0c0,0,0,0,0.1-0.1c0-0.1,0-0.1,0-0.1c0,0-0.1-0.1-0.1-0.1l-0.2-0.1L227.6,219.3L227.6,219.3z
			 M228.2,219.4L228.2,219.4c0.1,0,0.1,0,0.1,0c0,0,0,0,0,0c0,0,0,0,0-0.1c0,0,0-0.1,0-0.1c0-0.1,0-0.1,0-0.1c0,0,0-0.1,0-0.1
			c0,0,0,0,0,0c0,0,0,0,0,0l-0.1,0L228.2,219.4L228.2,219.4z M228.1,219.4l0.1-0.6l0.2,0c0,0,0.1,0,0.1,0c0,0,0,0,0,0
			c0,0,0,0.1,0,0.1c0,0,0,0.1,0,0.2c0,0.1,0,0.2-0.1,0.2c0,0,0,0.1-0.1,0.1c0,0,0,0-0.1,0c0,0-0.1,0-0.1,0L228.1,219.4L228.1,219.4z
			 M228.6,219.6l0.1-0.6l0.1,0l-0.1,0.6L228.6,219.6L228.6,219.6z M229.1,219.6l0.1-0.6l0.1,0l0.1,0.5l0-0.5l0.1,0l-0.1,0.6l-0.1,0
			l-0.1-0.5l0,0.5L229.1,219.6L229.1,219.6z M229.7,219.7l0-0.6l0.3,0l0,0.1l-0.2,0l0,0.1l0.2,0l0,0.1l-0.2,0l0,0.2l0.2,0l0,0.1
			L229.7,219.7L229.7,219.7z M230.5,219.6L230.5,219.6C230.4,219.6,230.4,219.6,230.5,219.6c-0.1,0-0.1,0-0.1,0
			c-0.1,0-0.1,0-0.2-0.1c0,0-0.1-0.1-0.1-0.3c0-0.1,0-0.1,0-0.2c0,0,0-0.1,0-0.1c0,0,0,0,0.1-0.1c0,0,0.1,0,0.1,0c0.1,0,0.1,0,0.2,0
			c0,0,0.1,0.1,0.1,0.1l0,0l-0.1,0l0,0c0,0,0-0.1,0-0.1c0,0,0,0-0.1,0c0,0-0.1,0-0.1,0.1c0,0,0,0.1,0,0.2c0,0.1,0,0.2,0,0.2
			c0,0,0,0,0.1,0c0,0,0.1,0,0.1,0c0,0,0-0.1,0-0.1l0,0l-0.1,0l0-0.1l0.2,0L230.5,219.6L230.5,219.6L230.5,219.6z M230.8,219.3l0.1,0
			l-0.1-0.3L230.8,219.3L230.8,219.3z M230.7,219.6l0-0.7l0.2,0l0.3,0.6l-0.1,0l-0.1-0.2l-0.1,0l0,0.2L230.7,219.6L230.7,219.6z
			 M231.2,219.1L231.2,219.1c0.1,0,0.1,0,0.1-0.1c0,0,0,0,0-0.1c0,0,0-0.1,0-0.1c0,0,0,0-0.1,0l-0.1,0L231.2,219.1L231.2,219.1z
			 M231.2,219.5l0.1,0l-0.1-0.3l0,0c0,0,0.1,0,0.1,0c0,0,0,0,0,0.1l0,0l0,0.1c0,0,0,0,0,0.1c0,0,0,0,0,0l0.1,0c0,0,0,0,0,0
			c0,0,0,0,0-0.1l0-0.1c0,0,0,0,0,0c0-0.1-0.1-0.1-0.1-0.1c0,0,0,0,0.1-0.1c0,0,0-0.1,0-0.1c0-0.1,0-0.1-0.1-0.1c0,0-0.1,0-0.1,0
			l-0.2,0.1L231.2,219.5L231.2,219.5z M231.8,219L231.8,219l-0.1-0.3L231.8,219L231.8,219z M231.7,219.3l-0.1-0.7l0.2-0.1l0.4,0.5
			l-0.1,0l-0.1-0.1l-0.1,0.1l0,0.2L231.7,219.3z"/>
	</g>
</g>
</svg>
