<?xml version="1.0" encoding="utf-8"?>
<!-- Generator: Adobe Illustrator 23.0.3, SVG Export Plug-In . SVG Version: 6.00 Build 0)  -->
<svg version="1.1" id="Layer_1" xmlns="http://www.w3.org/2000/svg" xmlns:xlink="http://www.w3.org/1999/xlink" x="0px" y="0px"
	 viewBox="0 0 316 289" style="enable-background:new 0 0 316 289;" xml:space="preserve">
<style type="text/css">
	.st0{fill:#FCE4EC;}
	.st1{fill:#C1C9EE;}
	.st2{fill:#159BEC;}
	.st3{fill:#FFFFFF;}
	.st4{fill:#095DE1;}
	.st5{fill:#A7803D;}
	.st6{fill:#FFAB91;}
	.st7{fill:#8E6A2E;}
	.st8{fill:#041066;}
	.st9{fill-rule:evenodd;clip-rule:evenodd;fill:#FFFFFF;}
	.st10{fill:#EFF3F8;}
	.st11{fill:#FF8A65;}
	.st12{fill:#54EAF1;}
</style>
<g>
	<g>
		<g>
			<path class="st0" d="M165.4,133.6c0,0-14.7,36.1-67,29.1c-48.7-6.5-73,68,1.2,113.2h123.8c0,0,100.9-69.5,56.6-141.6
				C242.1,72.5,176.6,111.1,165.4,133.6z"/>
		</g>
		<g>
			<g>
				<g>
					<g>
						<g>
							<rect x="63.5" y="87.5" class="st1" width="211.8" height="1.6"/>
						</g>
						<g>
							<path class="st1" d="M272.7,194H66c-1.9,0-3.4-1.5-3.4-3.4V71.8c0-1.9,1.5-3.4,3.4-3.4h206.6c1.9,0,3.4,1.5,3.4,3.4v118.8
								C276.1,192.5,274.5,194,272.7,194z M66,70.1c-1,0-1.8,0.8-1.8,1.8v118.8c0,1,0.8,1.8,1.8,1.8h206.6c1,0,1.8-0.8,1.8-1.8V71.8
								c0-1-0.8-1.8-1.8-1.8H66z"/>
						</g>
					</g>
				</g>
			</g>
		</g>
	</g>
	<g>
		<g>
			<g>
				<g>
					<g>
						<path class="st2" d="M249.7,52.2L249.7,52.2c-11.5,0-20.7-9.3-20.7-20.7v0c0-11.5,9.3-20.7,20.7-20.7l0,0
							c11.5,0,20.7,9.3,20.7,20.7v0C270.4,43,261.2,52.2,249.7,52.2z"/>
					</g>
				</g>
			</g>
		</g>
		<g>
			<path class="st3" d="M249.7,45.2c-7.6,0-13.7-6.2-13.7-13.7s6.2-13.7,13.7-13.7s13.7,6.2,13.7,13.7S257.3,45.2,249.7,45.2z
				 M249.7,19.8c-6.5,0-11.7,5.3-11.7,11.7c0,6.5,5.3,11.7,11.7,11.7s11.7-5.3,11.7-11.7C261.4,25,256.2,19.8,249.7,19.8z"/>
		</g>
		<g>
			<g>
				<path class="st3" d="M244.8,37C244.8,37,244.8,37,244.8,37c-0.6,0-1-0.5-1-1.1c0.2-3.3,2.9-5.8,6.2-5.8l4.6,0l0,0
					c0.6,0,1,0.4,1,1s-0.4,1-1,1l-4.6,0c-2.2,0-4,1.7-4.2,3.9C245.8,36.6,245.3,37,244.8,37z"/>
			</g>
			<g>
				<path class="st3" d="M250.5,36.3c-0.3,0-0.5-0.1-0.7-0.3c-0.4-0.4-0.4-1,0-1.4l3.4-3.4l-3.5-3.5c-0.4-0.4-0.4-1,0-1.4
					s1-0.4,1.4,0l4.2,4.2c0.2,0.2,0.3,0.4,0.3,0.7s-0.1,0.5-0.3,0.7l-4.2,4.2C251,36.2,250.7,36.3,250.5,36.3z"/>
			</g>
		</g>
	</g>
	<g>
		<g>
			<g>
				<g>
					<path class="st5" d="M199.8,166.8c0,0-11.4,1.3-27.8,3.2c-11.4,1.3-15.4,1.8-29.5,3.4l-21.2,3.6c-10.3,2.2-18.2,10.8-18.8,21.3
						c-0.1,1.4,0,2.8,0.2,4.2l14.7,73.3l79.9-0.8L199.8,166.8z"/>
					<path class="st6" d="M171.2,169.7l-11.3,1.2l-14.5,2l-14.1,2.5c0,0,7.2,11.8,31.1,8.2C178.8,181,171.2,169.7,171.2,169.7z"/>
				</g>
				<g>
					<path class="st9" d="M190.2,206.7h-2.9l2.8-1.4v-2.5h0.2v2.5l2.8,1.4H190.2L190.2,206.7z M190.2,206.8h1.9l0,0.5l0.9,0.4
						c-0.2,0.2-0.5,0.3-1,0.3c-0.6,0-0.8,0.3-1.1,0.8c-0.3,0.4-0.5,0.5-0.7,0.4c-0.2,0-0.4,0-0.7-0.4c-0.3-0.5-0.5-0.8-1.1-0.8
						c-0.5,0-0.8-0.1-1-0.3l0.9-0.4l0-0.5H190.2L190.2,206.8z M190.5,207v0.3h0.2V207H190.5L190.5,207z M191.3,207v0.3h0.2V207
						H191.3L191.3,207z M193.4,207.7c-0.5,0.4-0.8,0.4-1.3,0.5c-0.4,0-0.7,0.3-1,0.7c-0.2,0.3-0.4,0.6-0.8,0.6
						c-0.4,0-0.6-0.3-0.8-0.6c-0.2-0.4-0.5-0.6-1-0.7c-0.5,0-0.8,0-1.3-0.5c0,0.2,0.1,0.6,0.3,1c0.4,0.8,1.1,1.3,1.9,1.2
						c0.4-0.1,0.7-0.2,0.9-0.2c0.3-0.1,0.5,0.1,0.9,0.2c0.8,0.1,1.5-0.4,1.9-1.2C193.3,208.2,193.3,207.8,193.4,207.7L193.4,207.7z
						 M194,208.3c0,0,0.7-0.1,1.3-1c0.4-0.7,0.4-1.4,0.1-2.1c-0.2-0.7-0.6-1.2-1.1-1.4c0.5,0.8,1,1.9,0,3
						C194.4,207.3,194.4,207.8,194,208.3L194,208.3z M193.1,208.8c0.2-0.1,0.4-0.2,0.5-0.3c0.4-0.3,0.6-0.8,0.6-1.3
						c0-0.2-0.1-0.7-0.3-0.8c0.3,0.9-0.4,1.1-0.5,1.7C193.4,208.4,193.3,208.5,193.1,208.8L193.1,208.8z M194.1,208.5
						c0.8-0.3,1.3-0.8,1.7-1.9c0.2,1.2-0.7,2.5-2,2.6C193.9,209,194,208.8,194.1,208.5L194.1,208.5z M192.6,209.5
						c0.8,0,1.2-0.4,1.4-1c-0.2,0.2-0.4,0.2-0.7,0.3c-0.1,0-0.2,0.1-0.3,0.3C192.9,209.2,192.7,209.4,192.6,209.5L192.6,209.5z
						 M193.2,209.8c0.2-0.2,0.4-0.3,0.5-0.5c0.7,0,1.2-0.2,1.7-0.8C195.2,209.5,194.1,210.1,193.2,209.8L193.2,209.8z M190.5,209.9
						c0.4,0.1,0.7,0.2,1.1,0.1c0.5,0.3,1.2,0.5,1.9,0.5C192.6,211.1,191,210.8,190.5,209.9L190.5,209.9z M192.5,210.2
						c0.3-0.1,0.5-0.2,0.6-0.3c0.5,0.1,0.8,0.1,1.3-0.1C194,210.4,193,210.4,192.5,210.2L192.5,210.2z M191.8,209.9
						c0.3,0,0.5-0.2,0.7-0.3c0.2,0.1,0.5,0.1,0.7,0C192.9,210,192.3,210.3,191.8,209.9L191.8,209.9z M190,207h-0.2v0.3h0.2V207
						L190,207z M189.2,207H189v0.3h0.2V207L189.2,207z M186.5,208.3c0,0-0.7-0.1-1.3-1c-0.4-0.7-0.4-1.4-0.1-2.1
						c0.2-0.7,0.6-1.2,1.1-1.4c-0.5,0.8-1,1.9,0,3C186.1,207.3,186.1,207.8,186.5,208.3L186.5,208.3z M187.3,208.8
						c-0.1-0.2-0.2-0.4-0.3-0.7c-0.1-0.6-0.8-0.8-0.5-1.7c-0.2,0.2-0.3,0.6-0.3,0.8c0,0.5,0.2,1,0.6,1.3
						C187,208.6,187.1,208.7,187.3,208.8L187.3,208.8z M186.4,208.5c-0.8-0.3-1.3-0.8-1.7-1.9c-0.2,1.2,0.7,2.5,2,2.6
						C186.5,209,186.4,208.8,186.4,208.5L186.4,208.5z M187.9,209.5c-0.2-0.1-0.3-0.3-0.4-0.4c-0.1-0.2-0.2-0.2-0.3-0.3
						c-0.2-0.1-0.4-0.2-0.7-0.3C186.7,209.1,187.2,209.6,187.9,209.5L187.9,209.5z M187.3,209.8c-1,0.2-2-0.3-2.2-1.3
						c0.5,0.6,1,0.8,1.7,0.8C186.9,209.5,187.1,209.7,187.3,209.8L187.3,209.8z M190,209.9c-0.5,0.9-2.1,1.2-2.9,0.7
						c0.7-0.1,1.3-0.2,1.9-0.5C189.3,210,189.6,209.9,190,209.9L190,209.9z M188,210.2c-0.5,0.2-1.5,0.2-2-0.4
						c0.5,0.2,0.8,0.2,1.3,0.1C187.6,210.1,187.8,210.1,188,210.2L188,210.2z M188.7,209.9c-0.6,0.3-1.2,0.1-1.5-0.3
						c0.2,0,0.5,0.1,0.7,0C188.2,209.8,188.5,209.9,188.7,209.9z"/>
					<g>
						<path class="st9" d="M190.2,202.9c0.3-0.3,0-0.5,0-0.8C190,202.3,190,202.7,190.2,202.9z"/>
						<path class="st9" d="M190.5,205.1c0-0.4,0.4-0.3,0.6-0.5C191.1,204.9,190.8,205.2,190.5,205.1z"/>
						<path class="st9" d="M190.4,204.5c0-0.4,0.4-0.3,0.6-0.5C191.1,204.3,190.7,204.6,190.4,204.5z"/>
						<path class="st9" d="M190.4,203.9c0-0.4,0.4-0.3,0.6-0.5C191,203.7,190.7,204,190.4,203.9z"/>
						<path class="st9" d="M190.4,203.1c0.2-0.3,0.5-0.1,0.8-0.2C191,203.2,190.6,203.3,190.4,203.1z"/>
						<path class="st9" d="M190.9,202.5c-0.4,0-0.3-0.4-0.5-0.6C190.7,201.9,191,202.3,190.9,202.5z"/>
						<path class="st9" d="M191.3,205.2c-0.2,0.3,0.1,0.4,0.2,0.7C191.6,205.6,191.5,205.3,191.3,205.2z"/>
						<path class="st9" d="M191.3,205.1c0.1,0.3,0.4,0.3,0.6,0.4C191.9,205.2,191.5,205,191.3,205.1z"/>
						<path class="st9" d="M190.8,205.5c0-0.4,0.3-0.4,0.5-0.6C191.4,205.2,191.1,205.6,190.8,205.5z"/>
						<path class="st9" d="M191.2,204.5c-0.1-0.4,0.3-0.4,0.4-0.7C191.7,204.2,191.5,204.5,191.2,204.5z"/>
						<path class="st9" d="M191.2,204.7c0.1,0.4,0.4,0.3,0.7,0.4C191.8,204.8,191.4,204.6,191.2,204.7z"/>
						<path class="st9" d="M192,205.3c0-0.4,0.3-0.4,0.5-0.6C192.6,205,192.3,205.3,192,205.3z"/>
						<path class="st9" d="M191.7,204.5c0.2-0.3,0.5-0.2,0.7-0.3C192.3,204.6,191.9,204.7,191.7,204.5z"/>
						<path class="st9" d="M191.2,203.4c0.4-0.1,0.5,0.2,0.7,0.3C191.6,203.9,191.3,203.7,191.2,203.4z"/>
						<path class="st9" d="M191,202.6c0.2-0.3,0.5-0.1,0.8-0.2C191.6,202.7,191.2,202.8,191,202.6z"/>
						<path class="st9" d="M191.3,202.9c0.2-0.4,0.5-0.2,0.7-0.3C191.9,203,191.5,203.1,191.3,202.9z"/>
						<path class="st9" d="M191.7,203.1c0.2-0.3,0.5-0.1,0.8-0.1C192.4,203.3,191.9,203.3,191.7,203.1z"/>
						<path class="st9" d="M192,203.4c0.3-0.3,0.5,0,0.8-0.1C192.6,203.7,192.1,203.7,192,203.4z"/>
						<path class="st9" d="M192.2,203.8c0.3-0.3,0.5,0,0.8,0C192.8,204.1,192.3,204,192.2,203.8z"/>
						<path class="st9" d="M192.5,204.3c0.3-0.3,0.5,0,0.8,0C193.1,204.6,192.7,204.6,192.5,204.3z"/>
						<path class="st9" d="M192.8,204.9c0.2-0.3,0.5-0.2,0.7-0.3C193.4,205,193,205.1,192.8,204.9z"/>
						<path class="st9" d="M193,205.1c0.1,0.4,0.4,0.3,0.7,0.4C193.6,205.2,193.2,205,193,205.1z"/>
						<path class="st9" d="M192.5,205.7c0.4-0.2,0.2-0.4,0.3-0.7C192.4,205,192.3,205.4,192.5,205.7z"/>
						<path class="st9" d="M190,205.1c0-0.4-0.4-0.3-0.6-0.5C189.4,204.9,189.7,205.2,190,205.1z"/>
						<path class="st9" d="M190,204.5c0-0.4-0.4-0.3-0.6-0.5C189.4,204.3,189.8,204.6,190,204.5z"/>
						<path class="st9" d="M190.1,203.9c0-0.4-0.4-0.3-0.6-0.5C189.5,203.7,189.8,204,190.1,203.9z"/>
						<path class="st9" d="M190.1,203.1c-0.2-0.3-0.5-0.1-0.8-0.2C189.5,203.2,189.9,203.3,190.1,203.1z"/>
						<path class="st9" d="M189.6,202.5c0.4,0,0.3-0.4,0.5-0.6C189.8,201.9,189.5,202.3,189.6,202.5z"/>
						<path class="st9" d="M189.2,205.2c0.2,0.3-0.1,0.4-0.2,0.7C188.9,205.6,189,205.3,189.2,205.2z"/>
						<path class="st9" d="M189.2,205.1c-0.1,0.3-0.4,0.3-0.6,0.4C188.6,205.2,189,205,189.2,205.1z"/>
						<path class="st9" d="M189.7,205.5c0-0.4-0.3-0.4-0.5-0.6C189.1,205.2,189.4,205.6,189.7,205.5z"/>
						<path class="st9" d="M189.3,204.5c0.1-0.4-0.3-0.4-0.4-0.7C188.8,204.2,189,204.5,189.3,204.5z"/>
						<path class="st9" d="M189.3,204.7c-0.1,0.4-0.4,0.3-0.7,0.4C188.7,204.8,189.1,204.6,189.3,204.7z"/>
						<path class="st9" d="M188.5,205.3c0-0.4-0.3-0.4-0.5-0.6C187.9,205,188.2,205.3,188.5,205.3z"/>
						<path class="st9" d="M188.8,204.5c-0.2-0.3-0.5-0.2-0.7-0.3C188.2,204.6,188.6,204.7,188.8,204.5z"/>
						<path class="st9" d="M189.2,203.4c-0.4-0.1-0.5,0.2-0.7,0.3C188.8,203.9,189.2,203.7,189.2,203.4z"/>
						<path class="st9" d="M189.5,202.6c-0.2-0.3-0.5-0.1-0.8-0.2C188.9,202.7,189.3,202.8,189.5,202.6z"/>
						<path class="st9" d="M189.2,202.9c-0.2-0.4-0.5-0.2-0.7-0.3C188.5,203,188.9,203.1,189.2,202.9z"/>
						<path class="st9" d="M188.7,203.1c-0.2-0.3-0.5-0.1-0.8-0.1C188.1,203.3,188.5,203.3,188.7,203.1z"/>
						<path class="st9" d="M188.5,203.4c-0.3-0.3-0.5,0-0.8-0.1C187.9,203.7,188.3,203.7,188.5,203.4z"/>
						<path class="st9" d="M188.3,203.8c-0.3-0.3-0.5,0-0.8,0C187.7,204.1,188.1,204,188.3,203.8z"/>
						<path class="st9" d="M188,204.3c-0.3-0.3-0.5,0-0.8,0C187.4,204.6,187.8,204.6,188,204.3z"/>
						<path class="st9" d="M187.7,204.9c-0.2-0.3-0.5-0.2-0.7-0.3C187.1,205,187.5,205.1,187.7,204.9z"/>
						<path class="st9" d="M187.5,205.1c-0.1,0.4-0.4,0.3-0.7,0.4C186.9,205.2,187.3,205,187.5,205.1z"/>
						<path class="st9" d="M188,205.7c-0.4-0.2-0.2-0.4-0.3-0.7C188,205,188.2,205.4,188,205.7z"/>
					</g>
					<path class="st9" d="M188,211.7L188,211.7l0.2-0.2L188,211.7L188,211.7z M187.7,211.9l0.4-0.5l0.1,0.1l-0.1,0.7L188,212l0-0.2
						l-0.1-0.1l-0.1,0.1L187.7,211.9L187.7,211.9z M188.4,212L188.4,212c0.1,0,0.1,0,0.1,0c0,0,0,0,0-0.1c0,0,0-0.1,0-0.1
						c0,0,0,0-0.1,0l0,0L188.4,212L188.4,212z M188.5,211.8L188.5,211.8c0.1,0,0.1,0,0.1,0c0,0,0,0,0-0.1c0,0,0-0.1,0-0.1
						c0,0,0,0-0.1,0l0,0L188.5,211.8L188.5,211.8z M188.2,212.1l0.2,0.1c0.1,0,0.1,0,0.1,0c0,0,0.1-0.1,0.1-0.1c0,0,0-0.1,0-0.1
						c0,0,0-0.1-0.1-0.1c0,0,0.1,0,0.1,0c0,0,0,0,0.1-0.1c0-0.1,0-0.1,0-0.1c0,0-0.1-0.1-0.1-0.1l-0.2-0.1L188.2,212.1L188.2,212.1z
						 M188.9,212.2L188.9,212.2c0.1,0,0.1,0,0.1,0c0,0,0,0,0,0c0,0,0,0,0-0.1c0,0,0-0.1,0-0.1c0-0.1,0-0.1,0-0.1c0,0,0-0.1,0-0.1
						c0,0,0,0,0,0c0,0,0,0,0,0l-0.1,0L188.9,212.2L188.9,212.2z M188.7,212.3l0.1-0.6l0.2,0c0,0,0.1,0,0.1,0c0,0,0,0,0,0
						c0,0,0,0.1,0,0.1c0,0,0,0.1,0,0.2c0,0.1,0,0.2-0.1,0.2c0,0,0,0.1-0.1,0.1c0,0,0,0-0.1,0c0,0-0.1,0-0.1,0L188.7,212.3
						L188.7,212.3z M189.3,212.4l0.1-0.6l0.1,0l-0.1,0.6L189.3,212.4L189.3,212.4z M189.8,212.4l0.1-0.6l0.1,0l0.1,0.5l0-0.5l0.1,0
						l-0.1,0.6l-0.1,0l-0.1-0.5l0,0.5L189.8,212.4L189.8,212.4z M190.3,212.5l0-0.6l0.3,0l0,0.1l-0.2,0l0,0.1l0.2,0l0,0.1l-0.2,0
						l0,0.2l0.2,0l0,0.1L190.3,212.5L190.3,212.5z M191.1,212.4L191.1,212.4C191.1,212.4,191.1,212.4,191.1,212.4
						c-0.1,0-0.1,0-0.1,0c-0.1,0-0.1,0-0.2-0.1c0,0-0.1-0.1-0.1-0.3c0-0.1,0-0.1,0-0.2c0,0,0-0.1,0-0.1c0,0,0,0,0.1-0.1
						c0,0,0.1,0,0.1,0c0.1,0,0.1,0,0.2,0c0,0,0.1,0.1,0.1,0.1l0,0l-0.1,0l0,0c0,0,0-0.1,0-0.1c0,0,0,0-0.1,0c0,0-0.1,0-0.1,0.1
						c0,0,0,0.1,0,0.2c0,0.1,0,0.2,0,0.2c0,0,0,0,0.1,0c0,0,0.1,0,0.1,0c0,0,0-0.1,0-0.1l0,0l-0.1,0l0-0.1l0.2,0L191.1,212.4
						L191.1,212.4L191.1,212.4z M191.4,212.1l0.1,0l-0.1-0.3L191.4,212.1L191.4,212.1z M191.3,212.4l0-0.7l0.2,0l0.3,0.6l-0.1,0
						l-0.1-0.2l-0.1,0l0,0.2L191.3,212.4L191.3,212.4z M191.9,211.9L191.9,211.9c0.1,0,0.1,0,0.1-0.1c0,0,0,0,0-0.1c0,0,0-0.1,0-0.1
						c0,0,0,0-0.1,0l-0.1,0L191.9,211.9L191.9,211.9z M191.9,212.3l0.1,0l-0.1-0.3l0,0c0,0,0.1,0,0.1,0c0,0,0,0,0,0.1l0,0l0,0.1
						c0,0,0,0,0,0.1c0,0,0,0,0,0l0.1,0c0,0,0,0,0,0c0,0,0,0,0-0.1l0-0.1c0,0,0,0,0,0c0-0.1-0.1-0.1-0.1-0.1c0,0,0,0,0.1-0.1
						c0,0,0-0.1,0-0.1c0-0.1,0-0.1-0.1-0.1c0,0-0.1,0-0.1,0l-0.2,0.1L191.9,212.3L191.9,212.3z M192.4,211.8L192.4,211.8l-0.1-0.3
						L192.4,211.8L192.4,211.8z M192.3,212.1l-0.1-0.7l0.2-0.1l0.4,0.5l-0.1,0l-0.1-0.1l-0.1,0.1l0,0.2L192.3,212.1z"/>
				</g>
				<path class="st7" d="M112.2,181c-5.6,4-9.4,10.2-9.8,17.3c-0.1,1.4,0,2.8,0.2,4.2l14.7,73.3l26.6-0.3L112.2,181z"/>
				<g>
					<g>
						<path class="st5" d="M170.8,169.9l68.2-31.5l6.6,6.5c5.5,5.4,6.8,15.4,2.9,22c-1.7,2.8-3.9,4.8-7.5,7.2l-48.6,28.9
							L170.8,169.9z"/>
						<g>
							<path class="st8" d="M199,200c-0.5,0-0.8-0.4-0.8-0.8v-17.3c0-0.5,0.4-0.8,0.8-0.8c0.5,0,0.8,0.4,0.8,0.8v17.3
								C199.8,199.6,199.4,200,199,200z"/>
						</g>
					</g>
					<g>
						<path class="st6" d="M233,106.8c1.1-1,4.4-34.7,18.2-49.5c1.2-1.3,3.2-1.3,4.4-0.1l0,0c0.9,0.9,1.2,2.3,0.6,3.5l-7.1,14.9
							c0,0,12.6-4.6,14.8,7.4c2.2,11.9-9.4,17.5-9.4,17.5l-6.3,14L233,106.8z"/>
						<g>
							<g>
								<g>
									<polygon class="st5" points="215.7,159.9 233,98.9 253.4,105.8 250.6,160.6 									"/>
								</g>
							</g>
						</g>
					</g>
				</g>
				<g>
					<path class="st4" d="M128.3,275.8h58.3v-7.2h-52.3c-1.4,0-2.7,0.8-3.3,2L128.3,275.8z"/>
					<path class="st2" d="M296.2,213.6l-23.2,62.3h-99.5l24.9-63.7c1.2-2.3,3.6-3.8,6.2-3.8H293
						C295.7,208.4,297.4,211.2,296.2,213.6z"/>
					<path class="st10" d="M234.3,237.9c-2.1,3.7-1.1,8.2,2.1,10.1c3.3,1.9,7.7,0.5,9.8-3.2c2.1-3.7,1.1-8.2-2.1-10.1
						C240.8,232.8,236.4,234.2,234.3,237.9z"/>
				</g>
				<g>
					<g>
						<g>
							<polygon class="st6" points="97.4,275.8 125.3,275.9 125.7,265.4 91.1,259.4 							"/>
						</g>
						<polygon class="st5" points="68.4,242.8 120.3,261.1 117.9,276.1 65.8,275.7 						"/>
						<path class="st6" d="M120.7,265.5c0,0,31.8-14.8,34.9,10.4l-30.3,0.1L120.7,265.5z"/>
					</g>
					<g>
						<path class="st5" d="M62.7,274.9c-9.9-3.6-13.7-15.5-7.8-24.2l33.5-51.3c8.9-15.1,31.4-25.4,41.4-21.4l-2.6,10.6
							c6.4,5.2,9.4,9.2,4.8,16.1l-47.2,64.2C80.6,274.9,69.7,277.4,62.7,274.9L62.7,274.9z"/>
						<g>
							<path class="st8" d="M109.3,236.2c-0.2,0-0.4-0.1-0.5-0.2c-0.4-0.3-0.4-0.8-0.1-1.1l11.4-14.1c0.3-0.4,0.8-0.4,1.1-0.1
								c0.4,0.3,0.4,0.8,0.1,1.1L110,235.9C109.8,236.1,109.6,236.2,109.3,236.2z"/>
						</g>
					</g>
				</g>
			</g>
			<polygon class="st7" points="171.9,169.4 171.9,171.7 173.2,173.6 226.4,151.5 237.6,100.5 233,98.9 219.3,147.5 			"/>
			<path class="st7" d="M170.9,170.2c-10.6,1.2-14.8,1.7-28.5,3.3l-21.2,3.6c-1,0.2-1.9,0.5-2.9,0.8c-8.3,2-18,7.4-24.8,14.7
				c6.5,15.8,37.6,22.1,49.4,22.1c11.9,0,40.3-2,46.2-21.3c8.2-26.8-0.7-31-2-31l-16.4,7.6L170.9,170.2z"/>
			<path class="st8" d="M154.4,83.2c32.2,0,19.6,66.5,35.9,83.7c0,0,1.8,30.4-24.9,38.5c-26.6,8.1-71.5-13-71.5-13
				C115.5,170.7,91.2,83.2,154.4,83.2z"/>
			<g>
				<polygon class="st6" points="162.3,138.7 166.6,186.4 138.9,177.9 138.5,129.3 				"/>
				<path class="st6" d="M172.8,94.5c2.4,1.5,4,3.9,4.9,6.6c2.6,7.9,7.6,21.7,5.8,30.7c-2.3,11.6-10.4,20.7-25.4,19.7
					c0,0-17.8,0.4-24.2-21.4C123.7,95.4,152.6,81.3,172.8,94.5z"/>
				<path class="st4" d="M147,101.6c0,0,18.9-7.5,29.4-3.4c0,0-5.1-17.5-30.9-13.2L139,106L147,101.6z"/>
			</g>
			<path class="st8" d="M161.9,85.4c-14.7,0-38.9,65.9,1.6,65.9l5.8,35.1h-39.7C129.6,186.4,104.2,69.2,161.9,85.4z"/>
		</g>
		<path class="st7" d="M62.7,274.9c0.9,0.3,2,0.6,3,0.8l0,0.1l0.5,0c1.5,0.2,3.2,0.2,4.8,0l46.9,0.4l1.2-7.4
			c-8.5-0.3-38.4-2.6-50.5-3.1C54.5,265,55,250.6,55,250.6C49,259.3,52.9,271.2,62.7,274.9z"/>
		<g>
			<path class="st8" d="M291.5,277H45.8c-0.5,0-0.8-0.4-0.8-0.8s0.4-0.8,0.8-0.8h245.8c0.5,0,0.8,0.4,0.8,0.8S292,277,291.5,277z"/>
		</g>
	</g>
	<g>
		<circle class="st4" cx="63.5" cy="69.2" r="44.1"/>
		<g>
			<g>
				<path class="st3" d="M74.9,90.5H52c-2.7,0-4.9-2.2-4.9-4.9V52.9c0-2.7,2.2-4.9,4.9-4.9h11.4c0.4,0,0.8,0.2,1.2,0.5l14.7,14.7
					c0.3,0.3,0.5,0.7,0.5,1.2v21.2C79.8,88.3,77.6,90.5,74.9,90.5z M52,51.3c-0.9,0-1.6,0.7-1.6,1.6v32.6c0,0.9,0.7,1.6,1.6,1.6
					h22.9c0.9,0,1.6-0.7,1.6-1.6V65L62.8,51.3H52z"/>
			</g>
			<g>
				<path class="st3" d="M78.2,66H66.7c-2.7,0-4.9-2.2-4.9-4.9V49.7c0-0.7,0.4-1.3,1-1.5c0.6-0.3,1.3-0.1,1.8,0.4l14.7,14.7
					c0.5,0.5,0.6,1.2,0.4,1.8C79.4,65.6,78.8,66,78.2,66z M65.1,53.6v7.5c0,0.9,0.7,1.6,1.6,1.6h7.5L65.1,53.6z"/>
			</g>
		</g>
	</g>
</g>
</svg>
